<svg width="26" height="26" viewBox="0 0 26 26" fill="none" xmlns="http://www.w3.org/2000/svg">
<path d="M3.25 22.75H2.4375C2.4375 23.1987 2.80127 23.5625 3.25 23.5625V22.75ZM22.75 22.75V23.5625C23.1987 23.5625 23.5625 23.1987 23.5625 22.75H22.75ZM6.5 6.77083C6.05127 6.77083 5.6875 7.1346 5.6875 7.58333C5.6875 8.03206 6.05127 8.39583 6.5 8.39583V6.77083ZM7.58333 8.39583C8.03206 8.39583 8.39583 8.03206 8.39583 7.58333C8.39583 7.1346 8.03206 6.77083 7.58333 6.77083V8.39583ZM11.9167 6.77083C11.4679 6.77083 11.1042 7.1346 11.1042 7.58333C11.1042 8.03206 11.4679 8.39583 11.9167 8.39583V6.77083ZM13 8.39583C13.4487 8.39583 13.8125 8.03206 13.8125 7.58333C13.8125 7.1346 13.4487 6.77083 13 6.77083V8.39583ZM6.5 10.0208C6.05127 10.0208 5.6875 10.3846 5.6875 10.8333C5.6875 11.2821 6.05127 11.6458 6.5 11.6458V10.0208ZM7.58333 11.6458C8.03206 11.6458 8.39583 11.2821 8.39583 10.8333C8.39583 10.3846 8.03206 10.0208 7.58333 10.0208V11.6458ZM11.9167 10.0208C11.4679 10.0208 11.1042 10.3846 11.1042 10.8333C11.1042 11.2821 11.4679 11.6458 11.9167 11.6458V10.0208ZM13 11.6458C13.4487 11.6458 13.8125 11.2821 13.8125 10.8333C13.8125 10.3846 13.4487 10.0208 13 10.0208V11.6458ZM6.5 13.2708C6.05127 13.2708 5.6875 13.6346 5.6875 14.0833C5.6875 14.5321 6.05127 14.8958 6.5 14.8958V13.2708ZM7.58333 14.8958C8.03206 14.8958 8.39583 14.5321 8.39583 14.0833C8.39583 13.6346 8.03206 13.2708 7.58333 13.2708V14.8958ZM11.9167 13.2708C11.4679 13.2708 11.1042 13.6346 11.1042 14.0833C11.1042 14.5321 11.4679 14.8958 11.9167 14.8958V13.2708ZM13 14.8958C13.4487 14.8958 13.8125 14.5321 13.8125 14.0833C13.8125 13.6346 13.4487 13.2708 13 13.2708V14.8958ZM11.9167 22.75V23.5625H12.7292V22.75H11.9167ZM7.58333 22.75H6.77083V23.5625H7.58333V22.75ZM19.5 11.1042C19.0513 11.1042 18.6875 11.4679 18.6875 11.9167C18.6875 12.3654 19.0513 12.7292 19.5 12.7292V11.1042ZM19.5108 12.7292C19.9596 12.7292 20.3233 12.3654 20.3233 11.9167C20.3233 11.4679 19.9596 11.1042 19.5108 11.1042V12.7292ZM19.5 14.3542C19.0513 14.3542 18.6875 14.7179 18.6875 15.1667C18.6875 15.6154 19.0513 15.9792 19.5 15.9792V14.3542ZM19.5108 15.9792C19.9596 15.9792 20.3233 15.6154 20.3233 15.1667C20.3233 14.7179 19.9596 14.3542 19.5108 14.3542V15.9792ZM19.5 17.6042C19.0513 17.6042 18.6875 17.9679 18.6875 18.4167C18.6875 18.8654 19.0513 19.2292 19.5 19.2292V17.6042ZM19.5108 19.2292C19.9596 19.2292 20.3233 18.8654 20.3233 18.4167C20.3233 17.9679 19.9596 17.6042 19.5108 17.6042V19.2292ZM22.6319 8.17484L21.908 8.54371L22.6319 8.17484ZM22.1585 7.70141L21.7896 8.42535L22.1585 7.70141ZM15.6585 3.36808L15.2896 4.09202L15.6585 3.36808ZM16.1319 3.84151L15.408 4.21038L16.1319 3.84151ZM3.36808 3.84151L4.09202 4.21038L3.36808 3.84151ZM3.84151 3.36808L4.21038 4.09202L3.84151 3.36808ZM3.25 4.98333H2.4375V22.75H3.25H4.0625V4.98333H3.25ZM4.98333 3.25V4.0625H14.5167V3.25V2.4375H4.98333V3.25ZM16.25 4.98333H15.4375V7.58333H16.25H17.0625V4.98333H16.25ZM16.25 7.58333H15.4375V22.75H16.25H17.0625V7.58333H16.25ZM3.25 22.75V23.5625H16.25V22.75V21.9375H3.25V22.75ZM16.25 22.75V23.5625H22.75V22.75V21.9375H16.25V22.75ZM22.75 9.31667H21.9375V22.75H22.75H23.5625V9.31667H22.75ZM16.25 7.58333V8.39583H21.0167V7.58333V6.77083H16.25V7.58333ZM6.5 7.58333V8.39583H7.58333V7.58333V6.77083H6.5V7.58333ZM11.9167 7.58333V8.39583H13V7.58333V6.77083H11.9167V7.58333ZM6.5 10.8333V11.6458H7.58333V10.8333V10.0208H6.5V10.8333ZM11.9167 10.8333V11.6458H13V10.8333V10.0208H11.9167V10.8333ZM6.5 14.0833V14.8958H7.58333V14.0833V13.2708H6.5V14.0833ZM11.9167 14.0833V14.8958H13V14.0833V13.2708H11.9167V14.0833ZM11.9167 19.5H11.1042V22.75H11.9167H12.7292V19.5H11.9167ZM11.9167 22.75V21.9375H7.58333V22.75V23.5625H11.9167V22.75ZM7.58333 22.75H8.39583V19.5H7.58333H6.77083V22.75H7.58333ZM9.75 17.3333V18.1458C10.4979 18.1458 11.1042 18.7521 11.1042 19.5H11.9167H12.7292C12.7292 17.8547 11.3953 16.5208 9.75 16.5208V17.3333ZM9.75 17.3333V16.5208C8.10465 16.5208 6.77083 17.8547 6.77083 19.5H7.58333H8.39583C8.39583 18.7521 9.00211 18.1458 9.75 18.1458V17.3333ZM19.5 11.9167V12.7292H19.5108V11.9167V11.1042H19.5V11.9167ZM19.5 15.1667V15.9792H19.5108V15.1667V14.3542H19.5V15.1667ZM19.5 18.4167V19.2292H19.5108V18.4167V17.6042H19.5V18.4167ZM22.75 9.31667H23.5625C23.5625 9.02671 23.5631 8.76038 23.545 8.53897C23.5262 8.30808 23.483 8.05548 23.3559 7.80598L22.6319 8.17484L21.908 8.54371C21.8989 8.52595 21.9148 8.5409 21.9254 8.6713C21.9369 8.81119 21.9375 8.9999 21.9375 9.31667H22.75ZM21.0167 7.58333V8.39583C21.3334 8.39583 21.5221 8.39647 21.662 8.40789C21.7924 8.41855 21.8074 8.4344 21.7896 8.42535L22.1585 7.70141L22.5274 6.97747C22.2779 6.85034 22.0253 6.80716 21.7944 6.78829C21.573 6.7702 21.3066 6.77083 21.0167 6.77083V7.58333ZM22.6319 8.17484L23.3559 7.80598C23.1741 7.44925 22.8841 7.15923 22.5274 6.97747L22.1585 7.70141L21.7896 8.42535C21.8406 8.45132 21.882 8.49275 21.908 8.54371L22.6319 8.17484ZM14.5167 3.25V4.0625C14.8334 4.0625 15.0221 4.06313 15.162 4.07456C15.2924 4.08522 15.3074 4.10107 15.2896 4.09202L15.6585 3.36808L16.0274 2.64413C15.7779 2.51701 15.5253 2.47382 15.2944 2.45496C15.073 2.43687 14.8066 2.4375 14.5167 2.4375V3.25ZM16.25 4.98333H17.0625C17.0625 4.69338 17.0631 4.42705 17.045 4.20564C17.0262 3.97474 16.983 3.72214 16.8559 3.47264L16.1319 3.84151L15.408 4.21038C15.3989 4.19262 15.4148 4.20756 15.4254 4.33797C15.4369 4.47785 15.4375 4.66656 15.4375 4.98333H16.25ZM15.6585 3.36808L15.2896 4.09202C15.3406 4.11798 15.382 4.15942 15.408 4.21038L16.1319 3.84151L16.8559 3.47264C16.6741 3.11592 16.3841 2.82589 16.0274 2.64413L15.6585 3.36808ZM3.25 4.98333H4.0625C4.0625 4.66656 4.06313 4.47785 4.07456 4.33797C4.08522 4.20756 4.10107 4.19262 4.09202 4.21038L3.36808 3.84151L2.64413 3.47264C2.51701 3.72214 2.47382 3.97474 2.45496 4.20564C2.43687 4.42705 2.4375 4.69338 2.4375 4.98333H3.25ZM4.98333 3.25V2.4375C4.69338 2.4375 4.42705 2.43687 4.20564 2.45496C3.97474 2.47382 3.72214 2.51701 3.47264 2.64413L3.84151 3.36808L4.21038 4.09202C4.19262 4.10107 4.20756 4.08522 4.33797 4.07456C4.47785 4.06313 4.66656 4.0625 4.98333 4.0625V3.25ZM3.36808 3.84151L4.09202 4.21038C4.11798 4.15942 4.15942 4.11798 4.21038 4.09202L3.84151 3.36808L3.47264 2.64413C3.11592 2.82589 2.82589 3.11592 2.64413 3.47264L3.36808 3.84151Z" fill="#4B5A68"/>
</svg>
