<svg xmlns="http://www.w3.org/2000/svg" width="536" height="544" viewBox="0 0 536 544" fill="none"><path d="M191.086 83.9344L191.244 83.6613L143.319 0.643494L143.161 0.370453H46.9799L-0.226868 82.1524H1.03772L47.6266 1.46262H142.529L189.98 83.6613L144.382 162.612H145.661L191.086 83.9344Z" fill="#7C94AA"></path><path d="M164.717 185.448L164.63 185.319H163.366L163.452 185.448L129.61 244.065H61.9109L28.0686 185.448L28.1548 185.319H26.8758L26.804 185.448L61.2786 245.157H130.242L164.717 185.448Z" fill="#7C94AA"></path><path d="M98.5409 123.424L59.2235 55.323H57.9589L97.2763 123.424L58.505 190.577H59.7696L98.5409 123.424Z" fill="#7C94AA"></path><path d="M35.1532 363.209L34.8946 362.764L74.212 294.662H72.9474L33.63 362.764L33.8886 363.209H35.1532Z" fill="#7C94AA"></path><path d="M130.256 123.368L74.3412 220.21H-28.3065V221.316H74.9879L131.363 123.641L131.521 123.368L75.146 25.7065L74.9879 25.4335H-38.1071L-93.5912 121.528H-92.3267L-37.4748 26.5256H74.3412L130.256 123.368Z" fill="#7C94AA"></path><path d="M73.9102 344.298H-32.9193L-88.8346 247.456L-32.9193 150.614H73.9102V149.521H-33.5516L-89.9411 247.183L-90.0992 247.456L-33.7097 345.131L-33.5516 345.404H73.9102V344.298Z" fill="#7C94AA"></path><path d="M-7.65623 308.4H64.7706L104.677 377.508L64.7706 446.601H-7.65623V447.707H65.4173L105.942 377.508L65.4173 307.308H-7.65623V308.4Z" fill="#7C94AA"></path><path d="M137.815 377.78L137.973 377.507L87.404 289.905H86.1251L136.709 377.507L89.3441 459.548H90.6086L137.815 377.78Z" fill="#7C94AA"></path><path d="M173.569 238.331L204.092 185.462H262.694V184.37H203.459L172.304 238.331H173.569Z" fill="#7C94AA"></path><path d="M42.7982 274.328H-18.1179L-48.7412 221.301L-48.4682 220.841H-49.7328L-50.0058 221.301L-18.7502 275.435H42.7982V274.328Z" fill="#7C94AA"></path><path d="M334.69 400.342H333.425L299.856 458.484H232.171L198.329 399.867L231.596 342.228H230.332L197.05 399.867L231.525 459.591H300.488L334.69 400.342Z" fill="#7C94AA"></path><path d="M216.637 321.09H215.372L170.335 399.078L170.177 399.351L213.145 473.761H214.409L171.456 399.351L216.637 321.09Z" fill="#7C94AA"></path><path d="M167.763 283.883L167.605 284.156L215.53 367.174L215.689 367.447H311.855L359.076 285.665H357.797L311.223 366.341H216.321L168.87 284.156L214.453 205.191H213.188L167.763 283.883Z" fill="#7C94AA"></path><path d="M194.133 182.372L194.205 182.501H195.484L195.397 182.372L229.24 123.755H296.939L330.781 182.372L330.695 182.501H331.974L332.046 182.372L297.571 122.648H228.607L194.133 182.372Z" fill="#7C94AA"></path><path d="M420.898 243.935L421.156 244.38L381.839 312.481H383.104L422.421 244.38L422.162 243.935H420.898Z" fill="#7C94AA"></path><path d="M260.294 244.38L299.626 312.481H300.891L261.573 244.38L300.345 177.227H299.066L260.294 244.38Z" fill="#7C94AA"></path><path d="M452.441 246.292H451.176L396.324 341.28H284.508L228.636 244.51H227.357L283.703 342.114L283.862 342.387H396.957L452.441 246.292Z" fill="#7C94AA"></path><path d="M448.791 120.622L448.949 120.349L393.608 24.4986H392.344L447.684 120.349L391.769 217.206H284.939V218.298H392.401L448.791 120.622Z" fill="#7C94AA"></path><path d="M75.6776 534.575H74.413L23.9873 447.246L23.8292 446.973L71.194 364.933H72.473L25.0938 446.973L75.6776 534.575Z" fill="#7C94AA"></path><path d="M285.414 146L315.735 93.4763H376.967L407.576 146.503L407.318 146.963H408.582L408.855 146.503L377.6 92.3841H315.103L284.149 146H285.414Z" fill="#7C94AA"></path><path d="M480.334 171.952L510.785 119.227L480.262 66.3584H478.997L509.52 119.227L479.069 171.952H480.334Z" fill="#7C94AA"></path><path d="M534.151 119.228L491.801 192.589H493.066L535.257 119.501L535.415 119.228L492.017 44.0421L491.859 43.769H404.717L361.332 118.883H362.611L405.349 44.8612H491.212L534.151 119.228Z" fill="#7C94AA"></path><path d="M285.672 150.354C282.64 150.354 280.168 147.897 280.168 144.851C280.168 141.804 282.626 139.347 285.672 139.347C288.719 139.347 291.176 141.804 291.176 144.851C291.176 147.897 288.719 150.354 285.672 150.354Z" fill="#7C94AA"></path><path d="M300.344 182.731C297.312 182.731 294.841 180.274 294.841 177.228C294.841 174.181 297.298 171.724 300.344 171.724C303.391 171.724 305.848 174.181 305.848 177.228C305.848 180.274 303.391 182.731 300.344 182.731Z" fill="#7C94AA"></path><path d="M331.959 188.005C328.927 188.005 326.455 185.548 326.455 182.501C326.455 179.455 328.913 176.997 331.959 176.997C335.006 176.997 337.463 179.455 337.463 182.501C337.463 185.548 335.006 188.005 331.959 188.005Z" fill="#7C94AA"></path><path d="M362.525 124.042C359.493 124.042 357.021 121.585 357.021 118.538C357.021 115.492 359.479 113.034 362.525 113.034C365.572 113.034 368.029 115.492 368.029 118.538C368.029 121.585 365.572 124.042 362.525 124.042Z" fill="#7C94AA"></path><path d="M408.855 152.008C405.823 152.008 403.351 149.55 403.351 146.504C403.351 143.457 405.809 141 408.855 141C411.902 141 414.359 143.457 414.359 146.504C414.359 149.55 411.902 152.008 408.855 152.008Z" fill="#7C94AA"></path><path d="M383.104 317.985C380.071 317.985 377.6 315.528 377.6 312.481C377.6 309.435 380.057 306.978 383.104 306.978C386.15 306.978 388.607 309.435 388.607 312.481C388.607 315.528 386.15 317.985 383.104 317.985Z" fill="#7C94AA"></path><path d="M261.861 190.664C258.828 190.664 256.357 188.207 256.357 185.16C256.357 182.114 258.814 179.656 261.861 179.656C264.907 179.656 267.364 182.114 267.364 185.16C267.364 188.207 264.907 190.664 261.861 190.664Z" fill="#7C94AA"></path><path d="M480.334 177.457C477.302 177.457 474.83 175 474.83 171.953C474.83 168.907 477.287 166.449 480.334 166.449C483.38 166.449 485.838 168.907 485.838 171.953C485.838 175 483.38 177.457 480.334 177.457Z" fill="#7C94AA"></path><path d="M213.188 210.695C210.156 210.695 207.684 208.238 207.684 205.191C207.684 202.145 210.141 199.688 213.188 199.688C216.235 199.688 218.692 202.145 218.692 205.191C218.692 208.238 216.235 210.695 213.188 210.695Z" fill="#7C94AA"></path><path d="M231.596 347.732C228.564 347.732 226.093 345.275 226.093 342.229C226.093 339.182 228.55 336.725 231.596 336.725C234.643 336.725 237.1 339.182 237.1 342.229C237.1 345.275 234.643 347.732 231.596 347.732Z" fill="#7C94AA"></path><path d="M333.353 407.112C330.321 407.112 327.849 404.655 327.849 401.608C327.849 398.562 330.307 396.105 333.353 396.105C336.4 396.105 338.857 398.562 338.857 401.608C338.857 404.655 336.4 407.112 333.353 407.112Z" fill="#7C94AA"></path><path d="M213.547 478.833C210.515 478.833 208.043 476.376 208.043 473.329C208.043 470.283 210.501 467.825 213.547 467.825C216.594 467.825 219.051 470.283 219.051 473.329C219.051 476.376 216.594 478.833 213.547 478.833Z" fill="#7C94AA"></path><path d="M300.891 320.974C296.206 320.974 292.412 317.18 292.412 312.495C292.412 307.81 296.206 304.017 300.891 304.017C305.575 304.017 309.369 307.81 309.369 312.495C309.369 317.18 305.575 320.974 300.891 320.974Z" fill="#7C94AA"></path><path d="M452.441 254.77C447.756 254.77 443.962 250.976 443.962 246.291C443.962 241.606 447.756 237.812 452.441 237.812C457.126 237.812 460.919 241.606 460.919 246.291C460.919 250.976 457.126 254.77 452.441 254.77Z" fill="#7C94AA"></path><path d="M89.9188 467.797C85.2341 467.797 81.4403 464.003 81.4403 459.318C81.4403 454.634 85.2341 450.84 89.9188 450.84C94.6036 450.84 98.3974 454.634 98.3974 459.318C98.3974 464.003 94.6036 467.797 89.9188 467.797Z" fill="#7C94AA"></path><path d="M75.6777 543.055C70.9929 543.055 67.1992 539.261 67.1992 534.576C67.1992 529.891 70.9929 526.098 75.6777 526.098C80.3624 526.098 84.1562 529.891 84.1562 534.576C84.1562 539.261 80.3624 543.055 75.6777 543.055Z" fill="#7C94AA"></path><path d="M72.8036 347.79C71.2085 347.79 69.9152 346.497 69.9152 344.902C69.9152 343.306 71.2085 342.013 72.8036 342.013C74.3988 342.013 75.6921 343.306 75.6921 344.902C75.6921 346.497 74.3988 347.79 72.8036 347.79Z" fill="#7C94AA"></path><path d="M72.1283 367.821C70.5332 367.821 69.2398 366.528 69.2398 364.933C69.2398 363.338 70.5332 362.044 72.1283 362.044C73.7234 362.044 75.0167 363.338 75.0167 364.933C75.0167 366.528 73.7234 367.821 72.1283 367.821Z" fill="#7C94AA"></path><path d="M163.941 188.752C162.346 188.752 161.052 187.459 161.052 185.864C161.052 184.268 162.346 182.975 163.941 182.975C165.536 182.975 166.829 184.268 166.829 185.864C166.829 187.459 165.536 188.752 163.941 188.752Z" fill="#7C94AA"></path><path d="M145.547 164.94C143.951 164.94 142.658 163.647 142.658 162.052C142.658 160.457 143.951 159.164 145.547 159.164C147.142 159.164 148.435 160.457 148.435 162.052C148.435 163.647 147.142 164.94 145.547 164.94Z" fill="#7C94AA"></path><path d="M173.224 240.932C171.629 240.932 170.336 239.638 170.336 238.043C170.336 236.448 171.629 235.155 173.224 235.155C174.819 235.155 176.112 236.448 176.112 238.043C176.112 239.638 174.819 240.932 173.224 240.932Z" fill="#7C94AA"></path><path d="M41.002 277.647C39.4069 277.647 38.1135 276.354 38.1135 274.759C38.1135 273.164 39.4069 271.871 41.002 271.871C42.5971 271.871 43.8904 273.164 43.8904 274.759C43.8904 276.354 42.5971 277.647 41.002 277.647Z" fill="#7C94AA"></path><path d="M58.9218 193.394C57.3267 193.394 56.0333 192.1 56.0333 190.505C56.0333 188.91 57.3267 187.617 58.9218 187.617C60.5169 187.617 61.8102 188.91 61.8102 190.505C61.8102 192.1 60.5169 193.394 58.9218 193.394Z" fill="#7C94AA"></path><path d="M87.4039 292.794C85.8088 292.794 84.5154 291.501 84.5154 289.905C84.5154 288.31 85.8088 287.017 87.4039 287.017C88.999 287.017 90.2923 288.31 90.2923 289.905C90.2923 291.501 88.999 292.794 87.4039 292.794Z" fill="#7C94AA"></path><path d="M227.357 247.411C225.762 247.411 224.469 246.118 224.469 244.523C224.469 242.928 225.762 241.634 227.357 241.634C228.952 241.634 230.246 242.928 230.246 244.523C230.246 246.118 228.952 247.411 227.357 247.411Z" fill="#7C94AA"></path><path d="M216.637 323.977C215.042 323.977 213.749 322.683 213.749 321.088C213.749 319.493 215.042 318.2 216.637 318.2C218.232 318.2 219.525 319.493 219.525 321.088C219.525 322.683 218.232 323.977 216.637 323.977Z" fill="#7C94AA"></path></svg>