<svg xmlns="http://www.w3.org/2000/svg" width="563" height="538" viewBox="0 0 563 538" fill="none"><g opacity="0.15" clip-path="url(#clip0_28639_72443)"><path d="M39.2163 21.3018L35.409 37.1152H41.4209V44.9857H33.5052L30.84 56.0443H21.8527L24.5976 44.9857H14.8489L12.104 56.0443H3.12562L5.79079 44.9857H0V37.1152H7.6945L11.5019 21.3018H5.33922V13.5129H13.4145L16.3099 1.52148H25.2971L22.4017 13.5129H32.1505L35.0459 1.52148H44.033L41.1377 13.5129H46.8488V21.3018H39.2339H39.2163ZM30.5389 21.1478H20.3386L16.4515 37.2692H26.6517L30.5389 21.1478Z" fill="white"></path><path d="M51.0859 49.496L55.7345 42.6398C60.2237 46.4527 67.0062 48.7895 73.5496 48.7895C81.3148 48.7895 86.3444 45.5925 86.3444 40.6927C86.3444 36.1732 82.2357 33.7642 73.0184 32.5143C58.5503 30.4855 52.3875 25.5857 52.3875 16.0035C52.3875 6.42122 60.8348 0.425537 73.0184 0.425537C80.1018 0.425537 87.3359 2.91619 92.7373 7.20012L88.2479 13.6668C83.8297 10.2433 78.3488 8.44997 73.098 8.44997C66.0942 8.44997 61.1445 11.6471 61.1445 16.085C61.1445 20.5229 64.9519 22.9411 73.9393 24.2634C89.0182 26.5185 95.3405 31.192 95.3405 40.4662C95.3405 50.5102 86.6631 57.131 73.5586 57.131C65.4831 57.131 57.3372 54.4049 51.0949 49.496H51.0859Z" fill="white"></path><path d="M99.7695 36.7984C99.7695 25.269 107.615 16.7012 119.878 16.7012C132.141 16.7012 139.906 25.269 139.906 36.7984C139.906 48.3281 132.061 56.896 119.878 56.896C107.694 56.896 99.7695 48.3281 99.7695 36.7984ZM131.371 36.7984C131.371 30.0964 126.882 24.6441 119.878 24.6441C112.874 24.6441 108.305 30.0964 108.305 36.7984C108.305 43.5006 112.794 48.9529 119.878 48.9529C126.961 48.9529 131.371 43.5006 131.371 36.7984Z" fill="white"></path><path d="M206.425 33.5284V56.035H197.898V34.2258C197.898 28.0763 195.153 24.6436 190.053 24.6436C184.422 24.6436 180.685 28.692 180.685 34.6877V56.0258H172.158V34.2169C172.158 28.0672 169.343 24.6346 164.242 24.6346C158.682 24.6346 154.875 28.6831 154.875 34.6786V56.017H146.348V17.5611H153.963L154.042 22.0805C156.787 18.494 160.435 16.7822 165.154 16.7822C170.485 16.7822 174.974 19.3544 177.338 23.5568C180.304 19.0374 184.873 16.7822 190.744 16.7822C200.413 16.7822 206.425 23.0949 206.425 33.5284Z" fill="white"></path><path d="M212.473 36.7984C212.473 25.269 220.318 16.7012 232.572 16.7012C244.827 16.7012 252.6 25.269 252.6 36.7984C252.6 48.3281 244.756 56.896 232.572 56.896C220.389 56.896 212.473 48.3281 212.473 36.7984ZM244.074 36.7984C244.074 30.0964 239.585 24.6441 232.572 24.6441C225.56 24.6441 220.999 30.0964 220.999 36.7984C220.999 43.5006 225.489 48.9529 232.572 48.9529C239.656 48.9529 244.074 43.5006 244.074 36.7984Z" fill="white"></path><path d="M255.826 51.2894L259.785 44.9766C263.13 47.7027 268.081 49.2606 273.029 49.2606C277.979 49.2606 280.566 47.7027 280.566 44.8951C280.566 42.0876 278.131 40.8468 272.339 40.2217C262.52 39.2888 256.96 35.0773 256.96 28.3842C256.96 21.6913 263.502 16.6194 273.252 16.6194C278.961 16.6194 283.991 18.0957 288.18 21.0573L284.453 27.2886C281.104 25.1057 277.518 24.0189 273.641 24.0189C268.23 24.0189 265.335 25.5767 265.335 28.3842C265.335 30.875 267.54 32.1972 273.029 32.8223C284.15 34.072 289.021 37.7312 289.021 44.9766C289.021 52.2222 282.548 56.968 272.801 56.968C266.479 56.968 260.846 55.1023 255.816 51.2803L255.826 51.2894Z" fill="white"></path><path d="M336.129 47.703V56.0354H296.461V1.5127H335.677V9.77261H305.298V24.3362H334.385V32.4331H305.298V47.703H336.139H336.129Z" fill="white"></path><path d="M379.286 17.5615L363.375 56.0354H354.238L338.246 17.5615H347.534L352.785 30.7212L358.797 46.9967L364.888 30.7212L370.139 17.5615H379.278H379.286Z" fill="white"></path><path d="M418.659 40.0675H388.582C389.271 45.6738 393.84 49.2604 400.464 49.2604C404.73 49.2604 408.991 47.7025 411.275 45.2844L416.454 50.4287C412.726 54.5587 406.704 57.1309 400.234 57.1309C387.82 57.1309 379.824 49.1064 379.824 36.7979C379.824 24.4897 387.669 16.7822 399.321 16.7822C412.568 16.7822 419.882 25.658 418.659 40.0675ZM388.661 33.2929H410.514C409.901 27.8406 405.794 24.3357 399.552 24.3357C393.309 24.3357 389.733 27.6052 388.661 33.2929Z" fill="white"></path><path d="M453.567 20.1333L449.76 27.2249C447.627 25.7486 445.722 25.1236 443.438 25.1236C437.347 25.1236 433.46 29.7154 433.46 37.2782V56.053H424.934V17.5611H432.548L432.627 23.4843C435.593 18.811 439.331 16.7822 444.051 16.7822C447.707 16.7822 451.283 18.0321 453.567 20.1333Z" fill="white"></path><path d="M484.13 54.7129C481.236 56.0351 478.8 56.5785 475.683 56.5785C467.917 56.5785 463.349 51.9867 463.349 42.7937V24.9608H456.266V17.5612H463.349V7.5171L471.796 6.58423V17.5703H482.608V24.9698H471.796V42.8029C471.796 46.6973 473.55 48.88 477.047 48.88C478.57 48.88 480.323 48.4092 481.767 47.7118L484.13 54.7217V54.7129Z" fill="white"></path><path d="M524.06 40.0675H493.98C494.672 45.6738 499.241 49.2604 505.863 49.2604C510.131 49.2604 514.39 47.7025 516.674 45.2844L521.855 50.4287C518.127 54.5587 512.105 57.1309 505.632 57.1309C493.219 57.1309 485.223 49.1064 485.223 36.7979C485.223 24.4897 493.067 16.7822 504.722 16.7822C517.968 16.7822 525.28 25.658 524.06 40.0675ZM494.06 33.2929H515.912C515.302 27.8406 511.193 24.3357 504.952 24.3357C498.71 24.3357 495.131 27.6052 494.06 33.2929Z" fill="white"></path><path d="M528.285 36.7984C528.285 24.8796 536.361 16.7012 548.313 16.7012C553.794 16.7012 558.514 18.6484 562.551 22.6244L557.37 28.3122C555.086 25.9755 551.81 24.6532 548.464 24.6532C541.611 24.6532 536.812 29.6345 536.812 36.8075C536.812 43.9806 541.532 48.9621 548.464 48.9621C552.12 48.9621 555.468 47.5581 557.752 44.986L563.003 50.8277C558.814 54.9578 554.176 56.9048 548.385 56.9048C536.199 56.9048 528.285 48.9621 528.285 36.8075V36.7984Z" fill="white"></path></g><g opacity="0.15" clip-path="url(#clip1_28639_72443)"><path d="M39.2163 101.346L35.409 117.159H41.4209V125.03H33.5052L30.84 136.088H21.8527L24.5976 125.03H14.8489L12.104 136.088H3.12562L5.79079 125.03H0V117.159H7.6945L11.5019 101.346H5.33922V93.5568H13.4145L16.3099 81.5654H25.2971L22.4017 93.5568H32.1505L35.0459 81.5654H44.033L41.1377 93.5568H46.8488V101.346H39.2339H39.2163ZM30.5389 101.192H20.3386L16.4515 117.313H26.6517L30.5389 101.192Z" fill="white"></path><path d="M51.0859 129.54L55.7345 122.684C60.2237 126.497 67.0062 128.833 73.5496 128.833C81.3148 128.833 86.3444 125.636 86.3444 120.737C86.3444 116.217 82.2357 113.808 73.0184 112.558C58.5503 110.529 52.3875 105.63 52.3875 96.0474C52.3875 86.4652 60.8348 80.4695 73.0184 80.4695C80.1018 80.4695 87.3359 82.9601 92.7373 87.2441L88.2479 93.7107C83.8297 90.2872 78.3488 88.4939 73.098 88.4939C66.0942 88.4939 61.1445 91.691 61.1445 96.1289C61.1445 100.567 64.9519 102.985 73.9393 104.307C89.0182 106.562 95.3405 111.236 95.3405 120.51C95.3405 130.554 86.6631 137.175 73.5586 137.175C65.4831 137.175 57.3372 134.449 51.0949 129.54H51.0859Z" fill="white"></path><path d="M99.7695 116.842C99.7695 105.313 107.615 96.7451 119.878 96.7451C132.141 96.7451 139.906 105.313 139.906 116.842C139.906 128.372 132.061 136.94 119.878 136.94C107.694 136.94 99.7695 128.372 99.7695 116.842ZM131.371 116.842C131.371 110.14 126.882 104.688 119.878 104.688C112.874 104.688 108.305 110.14 108.305 116.842C108.305 123.545 112.794 128.997 119.878 128.997C126.961 128.997 131.371 123.545 131.371 116.842Z" fill="white"></path><path d="M206.425 113.572V136.079H197.898V114.27C197.898 108.12 195.153 104.688 190.053 104.688C184.422 104.688 180.685 108.736 180.685 114.732V136.07H172.158V114.261C172.158 108.111 169.343 104.679 164.242 104.679C158.682 104.679 154.875 108.727 154.875 114.723V136.061H146.348V97.6051H153.963L154.042 102.124C156.787 98.5379 160.435 96.8262 165.154 96.8262C170.485 96.8262 174.974 99.3983 177.338 103.601C180.304 99.0813 184.873 96.8262 190.744 96.8262C200.413 96.8262 206.425 103.139 206.425 113.572Z" fill="white"></path><path d="M212.473 116.842C212.473 105.313 220.318 96.7451 232.572 96.7451C244.827 96.7451 252.6 105.313 252.6 116.842C252.6 128.372 244.756 136.94 232.572 136.94C220.389 136.94 212.473 128.372 212.473 116.842ZM244.074 116.842C244.074 110.14 239.585 104.688 232.572 104.688C225.56 104.688 220.999 110.14 220.999 116.842C220.999 123.545 225.489 128.997 232.572 128.997C239.656 128.997 244.074 123.545 244.074 116.842Z" fill="white"></path><path d="M255.826 131.333L259.785 125.021C263.13 127.747 268.081 129.305 273.029 129.305C277.979 129.305 280.566 127.747 280.566 124.939C280.566 122.132 278.131 120.891 272.339 120.266C262.52 119.333 256.96 115.121 256.96 108.428C256.96 101.735 263.502 96.6633 273.252 96.6633C278.961 96.6633 283.991 98.1396 288.18 101.101L284.453 107.333C281.104 105.15 277.518 104.063 273.641 104.063C268.23 104.063 265.335 105.621 265.335 108.428C265.335 110.919 267.54 112.241 273.029 112.866C284.15 114.116 289.021 117.775 289.021 125.021C289.021 132.266 282.548 137.012 272.801 137.012C266.479 137.012 260.846 135.146 255.816 131.324L255.826 131.333Z" fill="white"></path><path d="M336.129 127.747V136.079H296.461V81.5566H335.677V89.8166H305.298V104.38H334.385V112.477H305.298V127.747H336.139H336.129Z" fill="white"></path><path d="M379.286 97.6055L363.375 136.079H354.238L338.246 97.6055H347.534L352.785 110.765L358.797 127.041L364.888 110.765L370.139 97.6055H379.278H379.286Z" fill="white"></path><path d="M418.659 120.111H388.582C389.271 125.718 393.84 129.304 400.464 129.304C404.73 129.304 408.991 127.746 411.275 125.328L416.454 130.473C412.726 134.603 406.704 137.175 400.234 137.175C387.82 137.175 379.824 129.15 379.824 116.842C379.824 104.534 387.669 96.8262 399.321 96.8262C412.568 96.8262 419.882 105.702 418.659 120.111ZM388.661 113.337H410.514C409.901 107.885 405.794 104.38 399.552 104.38C393.309 104.38 389.733 107.649 388.661 113.337Z" fill="white"></path><path d="M453.567 100.177L449.76 107.269C447.627 105.793 445.722 105.168 443.438 105.168C437.347 105.168 433.46 109.759 433.46 117.322V136.097H424.934V97.6051H432.548L432.627 103.528C435.593 98.8549 439.331 96.8262 444.051 96.8262C447.707 96.8262 451.283 98.076 453.567 100.177Z" fill="white"></path><path d="M484.13 134.757C481.236 136.079 478.8 136.622 475.683 136.622C467.917 136.622 463.349 132.031 463.349 122.838V105.005H456.266V97.6052H463.349V87.561L471.796 86.6282V97.6142H482.608V105.014H471.796V122.847C471.796 126.741 473.55 128.924 477.047 128.924C478.57 128.924 480.323 128.453 481.767 127.756L484.13 134.766V134.757Z" fill="white"></path><path d="M524.06 120.111H493.98C494.672 125.718 499.241 129.304 505.863 129.304C510.131 129.304 514.39 127.746 516.674 125.328L521.855 130.473C518.127 134.603 512.105 137.175 505.632 137.175C493.219 137.175 485.223 129.15 485.223 116.842C485.223 104.534 493.067 96.8262 504.722 96.8262C517.968 96.8262 525.28 105.702 524.06 120.111ZM494.06 113.337H515.912C515.302 107.885 511.193 104.38 504.952 104.38C498.71 104.38 495.131 107.649 494.06 113.337Z" fill="white"></path><path d="M528.285 116.842C528.285 104.924 536.361 96.7451 548.313 96.7451C553.794 96.7451 558.514 98.6924 562.551 102.668L557.37 108.356C555.086 106.019 551.81 104.697 548.464 104.697C541.611 104.697 536.812 109.678 536.812 116.851C536.812 124.025 541.532 129.006 548.464 129.006C552.12 129.006 555.468 127.602 557.752 125.03L563.003 130.872C558.814 135.002 554.176 136.949 548.385 136.949C536.199 136.949 528.285 129.006 528.285 116.851V116.842Z" fill="white"></path></g><g opacity="0.15" clip-path="url(#clip2_28639_72443)"><path d="M39.2163 181.39L35.409 197.203H41.4209V205.074H33.5052L30.84 216.132H21.8527L24.5976 205.074H14.8489L12.104 216.132H3.12562L5.79079 205.074H0V197.203H7.6945L11.5019 181.39H5.33922V173.601H13.4145L16.3099 161.61H25.2971L22.4017 173.601H32.1505L35.0459 161.61H44.033L41.1377 173.601H46.8488V181.39H39.2339H39.2163ZM30.5389 181.236H20.3386L16.4515 197.357H26.6517L30.5389 181.236Z" fill="white"></path><path d="M51.0859 209.584L55.7345 202.728C60.2237 206.541 67.0062 208.878 73.5496 208.878C81.3148 208.878 86.3444 205.681 86.3444 200.781C86.3444 196.261 82.2357 193.852 73.0184 192.602C58.5503 190.574 52.3875 185.674 52.3875 176.092C52.3875 166.509 60.8348 160.514 73.0184 160.514C80.1018 160.514 87.3359 163.004 92.7373 167.288L88.2479 173.755C83.8297 170.331 78.3488 168.538 73.098 168.538C66.0942 168.538 61.1445 171.735 61.1445 176.173C61.1445 180.611 64.9519 183.029 73.9393 184.352C89.0182 186.607 95.3405 191.28 95.3405 200.554C95.3405 210.598 86.6631 217.219 73.5586 217.219C65.4831 217.219 57.3372 214.493 51.0949 209.584H51.0859Z" fill="white"></path><path d="M99.7695 196.887C99.7695 185.357 107.615 176.789 119.878 176.789C132.141 176.789 139.906 185.357 139.906 196.887C139.906 208.416 132.061 216.984 119.878 216.984C107.694 216.984 99.7695 208.416 99.7695 196.887ZM131.371 196.887C131.371 190.185 126.882 184.732 119.878 184.732C112.874 184.732 108.305 190.185 108.305 196.887C108.305 203.589 112.794 209.041 119.878 209.041C126.961 209.041 131.371 203.589 131.371 196.887Z" fill="white"></path><path d="M206.425 193.617V216.123H197.898V194.314C197.898 188.164 195.153 184.732 190.053 184.732C184.422 184.732 180.685 188.78 180.685 194.776V216.114H172.158V194.305C172.158 188.155 169.343 184.723 164.242 184.723C158.682 184.723 154.875 188.771 154.875 194.767V216.105H146.348V177.649H153.963L154.042 182.169C156.787 178.582 160.435 176.87 165.154 176.87C170.485 176.87 174.974 179.443 177.338 183.645C180.304 179.126 184.873 176.87 190.744 176.87C200.413 176.87 206.425 183.183 206.425 193.617Z" fill="white"></path><path d="M212.473 196.887C212.473 185.357 220.318 176.789 232.572 176.789C244.827 176.789 252.6 185.357 252.6 196.887C252.6 208.416 244.756 216.984 232.572 216.984C220.389 216.984 212.473 208.416 212.473 196.887ZM244.074 196.887C244.074 190.185 239.585 184.732 232.572 184.732C225.56 184.732 220.999 190.185 220.999 196.887C220.999 203.589 225.489 209.041 232.572 209.041C239.656 209.041 244.074 203.589 244.074 196.887Z" fill="white"></path><path d="M255.826 211.378L259.785 205.065C263.13 207.791 268.081 209.349 273.029 209.349C277.979 209.349 280.566 207.791 280.566 204.983C280.566 202.176 278.131 200.935 272.339 200.31C262.52 199.377 256.96 195.165 256.96 188.472C256.96 181.779 263.502 176.708 273.252 176.708C278.961 176.708 283.991 178.184 288.18 181.145L284.453 187.377C281.104 185.194 277.518 184.107 273.641 184.107C268.23 184.107 265.335 185.665 265.335 188.472C265.335 190.963 267.54 192.285 273.029 192.91C284.15 194.16 289.021 197.819 289.021 205.065C289.021 212.31 282.548 217.056 272.801 217.056C266.479 217.056 260.846 215.19 255.816 211.368L255.826 211.378Z" fill="white"></path><path d="M336.129 207.791V216.124H296.461V161.601H335.677V169.861H305.298V184.424H334.385V192.521H305.298V207.791H336.139H336.129Z" fill="white"></path><path d="M379.286 177.65L363.375 216.124H354.238L338.246 177.65H347.534L352.785 190.809L358.797 207.085L364.888 190.809L370.139 177.65H379.278H379.286Z" fill="white"></path><path d="M418.659 200.156H388.582C389.271 205.762 393.84 209.349 400.464 209.349C404.73 209.349 408.991 207.791 411.275 205.372L416.454 210.517C412.726 214.647 406.704 217.219 400.234 217.219C387.82 217.219 379.824 209.195 379.824 196.886C379.824 184.578 387.669 176.87 399.321 176.87C412.568 176.87 419.882 185.746 418.659 200.156ZM388.661 193.381H410.514C409.901 187.929 405.794 184.424 399.552 184.424C393.309 184.424 389.733 187.693 388.661 193.381Z" fill="white"></path><path d="M453.567 180.221L449.76 187.313C447.627 185.837 445.722 185.212 443.438 185.212C437.347 185.212 433.46 189.804 433.46 197.366V216.141H424.934V177.649H432.548L432.627 183.572C435.593 178.899 439.331 176.87 444.051 176.87C447.707 176.87 451.283 178.12 453.567 180.221Z" fill="white"></path><path d="M484.13 214.801C481.236 216.123 478.8 216.667 475.683 216.667C467.917 216.667 463.349 212.075 463.349 202.882V185.049H456.266V177.649H463.349V167.605L471.796 166.672V177.658H482.608V185.058H471.796V202.891C471.796 206.785 473.55 208.968 477.047 208.968C478.57 208.968 480.323 208.497 481.767 207.8L484.13 214.81V214.801Z" fill="white"></path><path d="M524.06 200.156H493.98C494.672 205.762 499.241 209.349 505.863 209.349C510.131 209.349 514.39 207.791 516.674 205.372L521.855 210.517C518.127 214.647 512.105 217.219 505.632 217.219C493.219 217.219 485.223 209.195 485.223 196.886C485.223 184.578 493.067 176.87 504.722 176.87C517.968 176.87 525.28 185.746 524.06 200.156ZM494.06 193.381H515.912C515.302 187.929 511.193 184.424 504.952 184.424C498.71 184.424 495.131 187.693 494.06 193.381Z" fill="white"></path><path d="M528.285 196.887C528.285 184.968 536.361 176.789 548.313 176.789C553.794 176.789 558.514 178.737 562.551 182.713L557.37 188.4C555.086 186.064 551.81 184.741 548.464 184.741C541.611 184.741 536.812 189.723 536.812 196.896C536.812 204.069 541.532 209.05 548.464 209.05C552.12 209.05 555.468 207.646 557.752 205.074L563.003 210.916C558.814 215.046 554.176 216.993 548.385 216.993C536.199 216.993 528.285 209.05 528.285 196.896V196.887Z" fill="white"></path></g><g opacity="0.15" clip-path="url(#clip3_28639_72443)"><path d="M39.2163 261.434L35.409 277.247H41.4209V285.118H33.5052L30.84 296.176H21.8527L24.5976 285.118H14.8489L12.104 296.176H3.12562L5.79079 285.118H0V277.247H7.6945L11.5019 261.434H5.33922V253.645H13.4145L16.3099 241.654H25.2971L22.4017 253.645H32.1505L35.0459 241.654H44.033L41.1377 253.645H46.8488V261.434H39.2339H39.2163ZM30.5389 261.28H20.3386L16.4515 277.401H26.6517L30.5389 261.28Z" fill="white"></path><path d="M51.0859 289.628L55.7345 282.772C60.2237 286.585 67.0062 288.922 73.5496 288.922C81.3148 288.922 86.3444 285.725 86.3444 280.825C86.3444 276.305 82.2357 273.896 73.0184 272.646C58.5503 270.618 52.3875 265.718 52.3875 256.136C52.3875 246.553 60.8348 240.558 73.0184 240.558C80.1018 240.558 87.3359 243.048 92.7373 247.332L88.2479 253.799C83.8297 250.375 78.3488 248.582 73.098 248.582C66.0942 248.582 61.1445 251.779 61.1445 256.217C61.1445 260.655 64.9519 263.073 73.9393 264.395C89.0182 266.651 95.3405 271.324 95.3405 280.598C95.3405 290.642 86.6631 297.263 73.5586 297.263C65.4831 297.263 57.3372 294.537 51.0949 289.628H51.0859Z" fill="white"></path><path d="M99.7695 276.93C99.7695 265.401 107.615 256.833 119.878 256.833C132.141 256.833 139.906 265.401 139.906 276.93C139.906 288.46 132.061 297.028 119.878 297.028C107.694 297.028 99.7695 288.46 99.7695 276.93ZM131.371 276.93C131.371 270.229 126.882 264.776 119.878 264.776C112.874 264.776 108.305 270.229 108.305 276.93C108.305 283.633 112.794 289.085 119.878 289.085C126.961 289.085 131.371 283.633 131.371 276.93Z" fill="white"></path><path d="M206.425 273.66V296.167H197.898V274.358C197.898 268.208 195.153 264.776 190.053 264.776C184.422 264.776 180.685 268.824 180.685 274.82V296.158H172.158V274.349C172.158 268.199 169.343 264.767 164.242 264.767C158.682 264.767 154.875 268.815 154.875 274.811V296.149H146.348V257.693H153.963L154.042 262.213C156.787 258.626 160.435 256.914 165.154 256.914C170.485 256.914 174.974 259.486 177.338 263.689C180.304 259.169 184.873 256.914 190.744 256.914C200.413 256.914 206.425 263.227 206.425 273.66Z" fill="white"></path><path d="M212.473 276.93C212.473 265.401 220.318 256.833 232.572 256.833C244.827 256.833 252.6 265.401 252.6 276.93C252.6 288.46 244.756 297.028 232.572 297.028C220.389 297.028 212.473 288.46 212.473 276.93ZM244.074 276.93C244.074 270.229 239.585 264.776 232.572 264.776C225.56 264.776 220.999 270.229 220.999 276.93C220.999 283.633 225.489 289.085 232.572 289.085C239.656 289.085 244.074 283.633 244.074 276.93Z" fill="white"></path><path d="M255.826 291.421L259.785 285.109C263.13 287.835 268.081 289.393 273.029 289.393C277.979 289.393 280.566 287.835 280.566 285.027C280.566 282.22 278.131 280.979 272.339 280.354C262.52 279.421 256.96 275.209 256.96 268.516C256.96 261.823 263.502 256.751 273.252 256.751C278.961 256.751 283.991 258.228 288.18 261.189L284.453 267.421C281.104 265.238 277.518 264.151 273.641 264.151C268.23 264.151 265.335 265.709 265.335 268.516C265.335 271.007 267.54 272.329 273.029 272.954C284.15 274.204 289.021 277.863 289.021 285.109C289.021 292.354 282.548 297.1 272.801 297.1C266.479 297.1 260.846 295.234 255.816 291.412L255.826 291.421Z" fill="white"></path><path d="M336.129 287.835V296.168H296.461V241.645H335.677V249.905H305.298V264.468H334.385V272.565H305.298V287.835H336.139H336.129Z" fill="white"></path><path d="M379.286 257.694L363.375 296.167H354.238L338.246 257.694H347.534L352.785 270.853L358.797 287.129L364.888 270.853L370.139 257.694H379.278H379.286Z" fill="white"></path><path d="M418.659 280.2H388.582C389.271 285.806 393.84 289.393 400.464 289.393C404.73 289.393 408.991 287.835 411.275 285.416L416.454 290.561C412.726 294.691 406.704 297.263 400.234 297.263C387.82 297.263 379.824 289.239 379.824 276.93C379.824 264.622 387.669 256.914 399.321 256.914C412.568 256.914 419.882 265.79 418.659 280.2ZM388.661 273.425H410.514C409.901 267.973 405.794 264.468 399.552 264.468C393.309 264.468 389.733 267.737 388.661 273.425Z" fill="white"></path><path d="M453.567 260.265L449.76 267.357C447.627 265.881 445.722 265.256 443.438 265.256C437.347 265.256 433.46 269.847 433.46 277.41V296.185H424.934V257.693H432.548L432.627 263.616C435.593 258.943 439.331 256.914 444.051 256.914C447.707 256.914 451.283 258.164 453.567 260.265Z" fill="white"></path><path d="M484.13 294.845C481.236 296.167 478.8 296.711 475.683 296.711C467.917 296.711 463.349 292.119 463.349 282.926V265.093H456.266V257.693H463.349V247.649L471.796 246.716V257.702H482.608V265.102H471.796V282.935C471.796 286.829 473.55 289.012 477.047 289.012C478.57 289.012 480.323 288.541 481.767 287.844L484.13 294.854V294.845Z" fill="white"></path><path d="M524.06 280.2H493.98C494.672 285.806 499.241 289.393 505.863 289.393C510.131 289.393 514.39 287.835 516.674 285.416L521.855 290.561C518.127 294.691 512.105 297.263 505.632 297.263C493.219 297.263 485.223 289.239 485.223 276.93C485.223 264.622 493.067 256.914 504.722 256.914C517.968 256.914 525.28 265.79 524.06 280.2ZM494.06 273.425H515.912C515.302 267.973 511.193 264.468 504.952 264.468C498.71 264.468 495.131 267.737 494.06 273.425Z" fill="white"></path><path d="M528.285 276.93C528.285 265.012 536.361 256.833 548.313 256.833C553.794 256.833 558.514 258.78 562.551 262.757L557.37 268.444C555.086 266.108 551.81 264.785 548.464 264.785C541.611 264.785 536.812 269.767 536.812 276.94C536.812 284.113 541.532 289.094 548.464 289.094C552.12 289.094 555.468 287.69 557.752 285.118L563.003 290.96C558.814 295.09 554.176 297.037 548.385 297.037C536.199 297.037 528.285 289.094 528.285 276.94V276.93Z" fill="white"></path></g><g opacity="0.15" clip-path="url(#clip4_28639_72443)"><path d="M39.2163 341.478L35.409 357.291H41.4209V365.162H33.5052L30.84 376.221H21.8527L24.5976 365.162H14.8489L12.104 376.221H3.12562L5.79079 365.162H0V357.291H7.6945L11.5019 341.478H5.33922V333.689H13.4145L16.3099 321.698H25.2971L22.4017 333.689H32.1505L35.0459 321.698H44.033L41.1377 333.689H46.8488V341.478H39.2339H39.2163ZM30.5389 341.324H20.3386L16.4515 357.445H26.6517L30.5389 341.324Z" fill="white"></path><path d="M51.0859 369.672L55.7345 362.816C60.2237 366.629 67.0062 368.966 73.5496 368.966C81.3148 368.966 86.3444 365.769 86.3444 360.869C86.3444 356.349 82.2357 353.94 73.0184 352.691C58.5503 350.662 52.3875 345.762 52.3875 336.18C52.3875 326.597 60.8348 320.602 73.0184 320.602C80.1018 320.602 87.3359 323.092 92.7373 327.376L88.2479 333.843C83.8297 330.42 78.3488 328.626 73.098 328.626C66.0942 328.626 61.1445 331.823 61.1445 336.261C61.1445 340.699 64.9519 343.117 73.9393 344.44C89.0182 346.695 95.3405 351.368 95.3405 360.642C95.3405 370.687 86.6631 377.307 73.5586 377.307C65.4831 377.307 57.3372 374.581 51.0949 369.672H51.0859Z" fill="white"></path><path d="M99.7695 356.975C99.7695 345.445 107.615 336.877 119.878 336.877C132.141 336.877 139.906 345.445 139.906 356.975C139.906 368.504 132.061 377.072 119.878 377.072C107.694 377.072 99.7695 368.504 99.7695 356.975ZM131.371 356.975C131.371 350.273 126.882 344.82 119.878 344.82C112.874 344.82 108.305 350.273 108.305 356.975C108.305 363.677 112.794 369.129 119.878 369.129C126.961 369.129 131.371 363.677 131.371 356.975Z" fill="white"></path><path d="M206.425 353.705V376.211H197.898V354.402C197.898 348.253 195.153 344.82 190.053 344.82C184.422 344.82 180.685 348.868 180.685 354.864V376.202H172.158V354.393C172.158 348.243 169.343 344.811 164.242 344.811C158.682 344.811 154.875 348.859 154.875 354.855V376.193H146.348V337.737H153.963L154.042 342.257C156.787 338.67 160.435 336.958 165.154 336.958C170.485 336.958 174.974 339.531 177.338 343.733C180.304 339.214 184.873 336.958 190.744 336.958C200.413 336.958 206.425 343.271 206.425 353.705Z" fill="white"></path><path d="M212.473 356.975C212.473 345.445 220.318 336.877 232.572 336.877C244.827 336.877 252.6 345.445 252.6 356.975C252.6 368.504 244.756 377.072 232.572 377.072C220.389 377.072 212.473 368.504 212.473 356.975ZM244.074 356.975C244.074 350.273 239.585 344.82 232.572 344.82C225.56 344.82 220.999 350.273 220.999 356.975C220.999 363.677 225.489 369.129 232.572 369.129C239.656 369.129 244.074 363.677 244.074 356.975Z" fill="white"></path><path d="M255.826 371.466L259.785 365.153C263.13 367.879 268.081 369.437 273.029 369.437C277.979 369.437 280.566 367.879 280.566 365.071C280.566 362.264 278.131 361.023 272.339 360.398C262.52 359.465 256.96 355.254 256.96 348.561C256.96 341.868 263.502 336.796 273.252 336.796C278.961 336.796 283.991 338.272 288.18 341.234L284.453 347.465C281.104 345.282 277.518 344.195 273.641 344.195C268.23 344.195 265.335 345.753 265.335 348.561C265.335 351.051 267.54 352.373 273.029 352.999C284.15 354.248 289.021 357.907 289.021 365.153C289.021 372.398 282.548 377.144 272.801 377.144C266.479 377.144 260.846 375.279 255.816 371.457L255.826 371.466Z" fill="white"></path><path d="M336.129 367.879V376.212H296.461V321.689H335.677V329.949H305.298V344.512H334.385V352.609H305.298V367.879H336.139H336.129Z" fill="white"></path><path d="M379.286 337.738L363.375 376.212H354.238L338.246 337.738H347.534L352.785 350.897L358.797 367.173L364.888 350.897L370.139 337.738H379.278H379.286Z" fill="white"></path><path d="M418.659 360.244H388.582C389.271 365.85 393.84 369.437 400.464 369.437C404.73 369.437 408.991 367.879 411.275 365.461L416.454 370.605C412.726 374.735 406.704 377.307 400.234 377.307C387.82 377.307 379.824 369.283 379.824 356.974C379.824 344.666 387.669 336.958 399.321 336.958C412.568 336.958 419.882 345.834 418.659 360.244ZM388.661 353.469H410.514C409.901 348.017 405.794 344.512 399.552 344.512C393.309 344.512 389.733 347.781 388.661 353.469Z" fill="white"></path><path d="M453.567 340.31L449.76 347.401C447.627 345.925 445.722 345.3 443.438 345.3C437.347 345.3 433.46 349.892 433.46 357.454V376.229H424.934V337.737H432.548L432.627 343.661C435.593 338.987 439.331 336.958 444.051 336.958C447.707 336.958 451.283 338.208 453.567 340.31Z" fill="white"></path><path d="M484.13 374.889C481.236 376.211 478.8 376.755 475.683 376.755C467.917 376.755 463.349 372.163 463.349 362.97V345.137H456.266V337.738H463.349V327.693L471.796 326.76V337.747H482.608V345.146H471.796V362.979C471.796 366.874 473.55 369.056 477.047 369.056C478.57 369.056 480.323 368.585 481.767 367.888L484.13 374.898V374.889Z" fill="white"></path><path d="M524.06 360.244H493.98C494.672 365.85 499.241 369.437 505.863 369.437C510.131 369.437 514.39 367.879 516.674 365.461L521.855 370.605C518.127 374.735 512.105 377.307 505.632 377.307C493.219 377.307 485.223 369.283 485.223 356.974C485.223 344.666 493.067 336.958 504.722 336.958C517.968 336.958 525.28 345.834 524.06 360.244ZM494.06 353.469H515.912C515.302 348.017 511.193 344.512 504.952 344.512C498.71 344.512 495.131 347.781 494.06 353.469Z" fill="white"></path><path d="M528.285 356.975C528.285 345.056 536.361 336.877 548.313 336.877C553.794 336.877 558.514 338.825 562.551 342.801L557.37 348.488C555.086 346.152 551.81 344.829 548.464 344.829C541.611 344.829 536.812 349.811 536.812 356.984C536.812 364.157 541.532 369.138 548.464 369.138C552.12 369.138 555.468 367.734 557.752 365.162L563.003 371.004C558.814 375.134 554.176 377.081 548.385 377.081C536.199 377.081 528.285 369.138 528.285 356.984V356.975Z" fill="white"></path></g><g opacity="0.15" clip-path="url(#clip5_28639_72443)"><path d="M39.2163 421.522L35.409 437.335H41.4209V445.206H33.5052L30.84 456.265H21.8527L24.5976 445.206H14.8489L12.104 456.265H3.12562L5.79079 445.206H0V437.335H7.6945L11.5019 421.522H5.33922V413.733H13.4145L16.3099 401.742H25.2971L22.4017 413.733H32.1505L35.0459 401.742H44.033L41.1377 413.733H46.8488V421.522H39.2339H39.2163ZM30.5389 421.368H20.3386L16.4515 437.489H26.6517L30.5389 421.368Z" fill="white"></path><path d="M51.0859 449.716L55.7345 442.86C60.2237 446.673 67.0062 449.01 73.5496 449.01C81.3148 449.01 86.3444 445.813 86.3444 440.913C86.3444 436.393 82.2357 433.984 73.0184 432.734C58.5503 430.706 52.3875 425.806 52.3875 416.224C52.3875 406.641 60.8348 400.646 73.0184 400.646C80.1018 400.646 87.3359 403.136 92.7373 407.42L88.2479 413.887C83.8297 410.463 78.3488 408.67 73.098 408.67C66.0942 408.67 61.1445 411.867 61.1445 416.305C61.1445 420.743 64.9519 423.161 73.9393 424.484C89.0182 426.739 95.3405 431.412 95.3405 440.686C95.3405 450.73 86.6631 457.351 73.5586 457.351C65.4831 457.351 57.3372 454.625 51.0949 449.716H51.0859Z" fill="white"></path><path d="M99.7695 437.019C99.7695 425.489 107.615 416.921 119.878 416.921C132.141 416.921 139.906 425.489 139.906 437.019C139.906 448.548 132.061 457.116 119.878 457.116C107.694 457.116 99.7695 448.548 99.7695 437.019ZM131.371 437.019C131.371 430.317 126.882 424.864 119.878 424.864C112.874 424.864 108.305 430.317 108.305 437.019C108.305 443.721 112.794 449.173 119.878 449.173C126.961 449.173 131.371 443.721 131.371 437.019Z" fill="white"></path><path d="M206.425 433.749V456.255H197.898V434.446C197.898 428.297 195.153 424.864 190.053 424.864C184.422 424.864 180.685 428.912 180.685 434.908V456.246H172.158V434.437C172.158 428.287 169.343 424.855 164.242 424.855C158.682 424.855 154.875 428.903 154.875 434.899V456.237H146.348V417.781H153.963L154.042 422.301C156.787 418.714 160.435 417.002 165.154 417.002C170.485 417.002 174.974 419.575 177.338 423.777C180.304 419.258 184.873 417.002 190.744 417.002C200.413 417.002 206.425 423.315 206.425 433.749Z" fill="white"></path><path d="M212.473 437.019C212.473 425.489 220.318 416.921 232.572 416.921C244.827 416.921 252.6 425.489 252.6 437.019C252.6 448.548 244.756 457.116 232.572 457.116C220.389 457.116 212.473 448.548 212.473 437.019ZM244.074 437.019C244.074 430.317 239.585 424.864 232.572 424.864C225.56 424.864 220.999 430.317 220.999 437.019C220.999 443.721 225.489 449.173 232.572 449.173C239.656 449.173 244.074 443.721 244.074 437.019Z" fill="white"></path><path d="M255.826 451.51L259.785 445.197C263.13 447.923 268.081 449.481 273.029 449.481C277.979 449.481 280.566 447.923 280.566 445.115C280.566 442.308 278.131 441.067 272.339 440.442C262.52 439.509 256.96 435.298 256.96 428.604C256.96 421.911 263.502 416.84 273.252 416.84C278.961 416.84 283.991 418.316 288.18 421.277L284.453 427.509C281.104 425.326 277.518 424.239 273.641 424.239C268.23 424.239 265.335 425.797 265.335 428.604C265.335 431.095 267.54 432.417 273.029 433.043C284.15 434.292 289.021 437.951 289.021 445.197C289.021 452.442 282.548 457.188 272.801 457.188C266.479 457.188 260.846 455.323 255.816 451.5L255.826 451.51Z" fill="white"></path><path d="M336.129 447.923V456.256H296.461V401.733H335.677V409.993H305.298V424.556H334.385V432.653H305.298V447.923H336.139H336.129Z" fill="white"></path><path d="M379.286 417.782L363.375 456.256H354.238L338.246 417.782H347.534L352.785 430.941L358.797 447.217L364.888 430.941L370.139 417.782H379.278H379.286Z" fill="white"></path><path d="M418.659 440.288H388.582C389.271 445.894 393.84 449.481 400.464 449.481C404.73 449.481 408.991 447.923 411.275 445.505L416.454 450.649C412.726 454.779 406.704 457.351 400.234 457.351C387.82 457.351 379.824 449.327 379.824 437.018C379.824 424.71 387.669 417.002 399.321 417.002C412.568 417.002 419.882 425.878 418.659 440.288ZM388.661 433.513H410.514C409.901 428.061 405.794 424.556 399.552 424.556C393.309 424.556 389.733 427.825 388.661 433.513Z" fill="white"></path><path d="M453.567 420.354L449.76 427.445C447.627 425.969 445.722 425.344 443.438 425.344C437.347 425.344 433.46 429.936 433.46 437.498V456.273H424.934V417.781H432.548L432.627 423.705C435.593 419.031 439.331 417.002 444.051 417.002C447.707 417.002 451.283 418.252 453.567 420.354Z" fill="white"></path><path d="M484.13 454.933C481.236 456.255 478.8 456.799 475.683 456.799C467.917 456.799 463.349 452.207 463.349 443.014V425.181H456.266V417.781H463.349V407.737L471.796 406.804V417.791H482.608V425.19H471.796V443.023C471.796 446.917 473.55 449.1 477.047 449.1C478.57 449.1 480.323 448.629 481.767 447.932L484.13 454.942V454.933Z" fill="white"></path><path d="M524.06 440.288H493.98C494.672 445.894 499.241 449.481 505.863 449.481C510.131 449.481 514.39 447.923 516.674 445.505L521.855 450.649C518.127 454.779 512.105 457.351 505.632 457.351C493.219 457.351 485.223 449.327 485.223 437.018C485.223 424.71 493.067 417.002 504.722 417.002C517.968 417.002 525.28 425.878 524.06 440.288ZM494.06 433.513H515.912C515.302 428.061 511.193 424.556 504.952 424.556C498.71 424.556 495.131 427.825 494.06 433.513Z" fill="white"></path><path d="M528.285 437.019C528.285 425.1 536.361 416.921 548.313 416.921C553.794 416.921 558.514 418.869 562.551 422.845L557.37 428.532C555.086 426.196 551.81 424.873 548.464 424.873C541.611 424.873 536.812 429.855 536.812 437.028C536.812 444.201 541.532 449.182 548.464 449.182C552.12 449.182 555.468 447.778 557.752 445.206L563.003 451.048C558.814 455.178 554.176 457.125 548.385 457.125C536.199 457.125 528.285 449.182 528.285 437.028V437.019Z" fill="white"></path></g><g clip-path="url(#clip6_28639_72443)"><path d="M39.2163 501.566L35.409 517.38H41.4209V525.25H33.5052L30.84 536.309H21.8527L24.5976 525.25H14.8489L12.104 536.309H3.12562L5.79079 525.25H0V517.38H7.6945L11.5019 501.566H5.33922V493.777H13.4145L16.3099 481.786H25.2971L22.4017 493.777H32.1505L35.0459 481.786H44.033L41.1377 493.777H46.8488V501.566H39.2339H39.2163ZM30.5389 501.412H20.3386L16.4515 517.534H26.6517L30.5389 501.412Z" fill="#FF6C0C"></path><path d="M51.0859 529.76L55.7345 522.904C60.2237 526.717 67.0062 529.054 73.5496 529.054C81.3148 529.054 86.3444 525.857 86.3444 520.957C86.3444 516.438 82.2357 514.029 73.0184 512.779C58.5503 510.75 52.3875 505.85 52.3875 496.268C52.3875 486.686 60.8348 480.69 73.0184 480.69C80.1018 480.69 87.3359 483.181 92.7373 487.465L88.2479 493.931C83.8297 490.508 78.3488 488.714 73.098 488.714C66.0942 488.714 61.1445 491.911 61.1445 496.349C61.1445 500.787 64.9519 503.205 73.9393 504.528C89.0182 506.783 95.3405 511.456 95.3405 520.731C95.3405 530.775 86.6631 537.395 73.5586 537.395C65.4831 537.395 57.3372 534.669 51.0949 529.76H51.0859Z" fill="#FF6C0C"></path><path d="M99.7695 517.063C99.7695 505.533 107.615 496.966 119.878 496.966C132.141 496.966 139.906 505.533 139.906 517.063C139.906 528.592 132.061 537.16 119.878 537.16C107.694 537.16 99.7695 528.592 99.7695 517.063ZM131.371 517.063C131.371 510.361 126.882 504.909 119.878 504.909C112.874 504.909 108.305 510.361 108.305 517.063C108.305 523.765 112.794 529.217 119.878 529.217C126.961 529.217 131.371 523.765 131.371 517.063Z" fill="#FF6C0C"></path><path d="M206.425 513.793V536.299H197.898V514.49C197.898 508.341 195.153 504.908 190.053 504.908C184.422 504.908 180.685 508.956 180.685 514.952V536.29H172.158V514.481C172.158 508.332 169.343 504.899 164.242 504.899C158.682 504.899 154.875 508.948 154.875 514.943V536.281H146.348V497.826H153.963L154.042 502.345C156.787 498.758 160.435 497.047 165.154 497.047C170.485 497.047 174.974 499.619 177.338 503.821C180.304 499.302 184.873 497.047 190.744 497.047C200.413 497.047 206.425 503.359 206.425 513.793Z" fill="#FF6C0C"></path><path d="M212.473 517.063C212.473 505.533 220.318 496.966 232.572 496.966C244.827 496.966 252.6 505.533 252.6 517.063C252.6 528.592 244.756 537.16 232.572 537.16C220.389 537.16 212.473 528.592 212.473 517.063ZM244.074 517.063C244.074 510.361 239.585 504.909 232.572 504.909C225.56 504.909 220.999 510.361 220.999 517.063C220.999 523.765 225.489 529.217 232.572 529.217C239.656 529.217 244.074 523.765 244.074 517.063Z" fill="#FF6C0C"></path><path d="M255.826 531.554L259.785 525.241C263.13 527.967 268.081 529.525 273.029 529.525C277.979 529.525 280.566 527.967 280.566 525.16C280.566 522.352 278.131 521.111 272.339 520.486C262.52 519.553 256.96 515.342 256.96 508.649C256.96 501.956 263.502 496.884 273.252 496.884C278.961 496.884 283.991 498.36 288.18 501.322L284.453 507.553C281.104 505.37 277.518 504.283 273.641 504.283C268.23 504.283 265.335 505.841 265.335 508.649C265.335 511.139 267.54 512.462 273.029 513.087C284.15 514.336 289.021 517.996 289.021 525.241C289.021 532.487 282.548 537.232 272.801 537.232C266.479 537.232 260.846 535.367 255.816 531.545L255.826 531.554Z" fill="#FF6C0C"></path><path d="M336.129 527.967V536.3H296.461V481.777H335.677V490.037H305.298V504.601H334.385V512.698H305.298V527.967H336.139H336.129Z" fill="#FF6C0C"></path><path d="M379.286 497.826L363.375 536.3H354.238L338.246 497.826H347.534L352.785 510.986L358.797 527.261L364.888 510.986L370.139 497.826H379.278H379.286Z" fill="#FF6C0C"></path><path d="M418.659 520.332H388.582C389.271 525.938 393.84 529.525 400.464 529.525C404.73 529.525 408.991 527.967 411.275 525.549L416.454 530.693C412.726 534.823 406.704 537.395 400.234 537.395C387.82 537.395 379.824 529.371 379.824 517.062C379.824 504.754 387.669 497.047 399.321 497.047C412.568 497.047 419.882 505.922 418.659 520.332ZM388.661 513.557H410.514C409.901 508.105 405.794 504.6 399.552 504.6C393.309 504.6 389.733 507.87 388.661 513.557Z" fill="#FF6C0C"></path><path d="M453.567 500.398L449.76 507.489C447.627 506.013 445.722 505.388 443.438 505.388C437.347 505.388 433.46 509.98 433.46 517.543V536.317H424.934V497.826H432.548L432.627 503.749C435.593 499.075 439.331 497.047 444.051 497.047C447.707 497.047 451.283 498.296 453.567 500.398Z" fill="#FF6C0C"></path><path d="M484.13 534.977C481.236 536.299 478.8 536.843 475.683 536.843C467.917 536.843 463.349 532.251 463.349 523.058V505.225H456.266V497.826H463.349V487.782L471.796 486.849V497.835H482.608V505.234H471.796V523.067C471.796 526.962 473.55 529.144 477.047 529.144C478.57 529.144 480.323 528.674 481.767 527.976L484.13 534.986V534.977Z" fill="#FF6C0C"></path><path d="M524.06 520.332H493.98C494.672 525.938 499.241 529.525 505.863 529.525C510.131 529.525 514.39 527.967 516.674 525.549L521.855 530.693C518.127 534.823 512.105 537.395 505.632 537.395C493.219 537.395 485.223 529.371 485.223 517.062C485.223 504.754 493.067 497.047 504.722 497.047C517.968 497.047 525.28 505.922 524.06 520.332ZM494.06 513.557H515.912C515.302 508.105 511.193 504.6 504.952 504.6C498.71 504.6 495.131 507.87 494.06 513.557Z" fill="#FF6C0C"></path><path d="M528.285 517.063C528.285 505.144 536.361 496.966 548.313 496.966C553.794 496.966 558.514 498.913 562.551 502.889L557.37 508.577C555.086 506.24 551.81 504.918 548.464 504.918C541.611 504.918 536.812 509.899 536.812 517.072C536.812 524.245 541.532 529.226 548.464 529.226C552.12 529.226 555.468 527.823 557.752 525.25L563.003 531.092C558.814 535.222 554.176 537.169 548.385 537.169C536.199 537.169 528.285 529.226 528.285 517.072V517.063Z" fill="#FF6C0C"></path></g><defs><clipPath id="clip0_28639_72443"><rect width="563" height="57.0441" fill="white" transform="translate(0 0.257324)"></rect></clipPath><clipPath id="clip1_28639_72443"><rect width="563" height="57.0441" fill="white" transform="translate(0 80.3013)"></rect></clipPath><clipPath id="clip2_28639_72443"><rect width="563" height="57.0441" fill="white" transform="translate(0 160.345)"></rect></clipPath><clipPath id="clip3_28639_72443"><rect width="563" height="57.0441" fill="white" transform="translate(0 240.389)"></rect></clipPath><clipPath id="clip4_28639_72443"><rect width="563" height="57.0441" fill="white" transform="translate(0 320.434)"></rect></clipPath><clipPath id="clip5_28639_72443"><rect width="563" height="57.0441" fill="white" transform="translate(0 400.478)"></rect></clipPath><clipPath id="clip6_28639_72443"><rect width="563" height="57.0441" fill="white" transform="translate(0 480.522)"></rect></clipPath></defs></svg>