<svg width="34" height="34" viewBox="0 0 34 34" fill="none" xmlns="http://www.w3.org/2000/svg">
<path d="M12.75 18.4167C12.75 21.5463 15.2871 24.0833 18.4167 24.0833C19.9815 24.0833 21.3981 23.4491 22.4236 22.4236M12.75 18.4167H7.08333M12.75 18.4167C12.75 16.218 14.0022 14.3118 15.8323 13.3723M7.08333 18.4167C7.08333 19.1991 6.44907 19.8333 5.66667 19.8333C4.88426 19.8333 4.25 19.1991 4.25 18.4167C4.25 17.6343 4.88426 17 5.66667 17C6.44907 17 7.08333 17.6343 7.08333 18.4167ZM27.3316 9.50173C27.0752 9.24537 26.9167 8.8912 26.9167 8.5C26.9167 7.7176 27.5509 7.08333 28.3333 7.08333C29.1157 7.08333 29.75 7.7176 29.75 8.5C29.75 9.2824 29.1157 9.91667 28.3333 9.91667C27.9421 9.91667 27.588 9.7581 27.3316 9.50173ZM27.3316 9.50173L22.4236 14.4097M13.2763 6.98236C13.7981 6.77344 14.1667 6.2631 14.1667 5.66667C14.1667 4.88426 13.5324 4.25 12.75 4.25C11.9676 4.25 11.3333 4.88426 11.3333 5.66667C11.3333 6.44907 11.9676 7.08333 12.75 7.08333C12.936 7.08333 13.1136 7.0475 13.2763 6.98236ZM13.2763 6.98236L15.8323 13.3723M22.4236 22.4236C23.4491 21.3981 24.0833 19.9815 24.0833 18.4167C24.0833 16.8519 23.4491 15.4352 22.4236 14.4097M22.4236 22.4236L27.3316 27.3316M27.3316 27.3316C27.0752 27.588 26.9167 27.9421 26.9167 28.3333C26.9167 29.1157 27.5509 29.75 28.3333 29.75C29.1157 29.75 29.75 29.1157 29.75 28.3333C29.75 27.5509 29.1157 26.9167 28.3333 26.9167C27.9421 26.9167 27.588 27.0752 27.3316 27.3316ZM22.4236 14.4097C21.3981 13.3843 19.9815 12.75 18.4167 12.75C17.4857 12.75 16.6072 12.9745 15.8323 13.3723" stroke="#0DD3AD" stroke-width="2.55" stroke-linecap="round" stroke-linejoin="round"/>
</svg>
