<svg xmlns="http://www.w3.org/2000/svg" id="Capa_1" data-name="Capa 1" width="100" height="100" viewBox="0 0 100 100"><g><path d="M80.61,81.62c-3.2,3.89-8.01,6.36-13.4,6.36-9.62,0-17.42-7.9-17.42-17.63s7.8-17.63,17.42-17.63c5.45,0,10.32,2.54,13.52,6.51" style="fill: none; stroke: #4c5f71; stroke-miterlimit: 10; stroke-width: 3px;"></path><polyline points="65.72 65.94 74.69 75.02 92.87 56.62" style="fill: none; stroke: #4c5f71; stroke-miterlimit: 10; stroke-width: 3px;"></polyline></g><g><polyline points="51.05 84.27 19.22 84.27 19.22 15.39 60.06 15.39 69.17 24.19 69.17 48.2" style="fill: none; stroke: #4c5f71; stroke-miterlimit: 10; stroke-width: 3px;"></polyline><polyline points="29.61 12.63 30.5 6.72 77.35 13.97 72.42 46.58" style="fill: none; stroke: #4c5f71; stroke-miterlimit: 10; stroke-width: 3px;"></polyline><polyline points="49.26 89.4 15.64 93.35 7.92 25.99 15.26 25.13" style="fill: none; stroke: #4c5f71; stroke-miterlimit: 10; stroke-width: 3px;"></polyline><polyline points="60.06 15.39 58.67 26.02 69.17 24.19" style="fill: none; stroke: #4c5f71; stroke-miterlimit: 10; stroke-width: 3px;"></polyline><line x1="26.1" y1="28.95" x2="63.74" y2="28.95" style="fill: none; stroke: #4c5f71; stroke-miterlimit: 10; stroke-width: 3px;"></line><line x1="26.1" y1="34.81" x2="63.74" y2="34.81" style="fill: none; stroke: #4c5f71; stroke-miterlimit: 10; stroke-width: 3px;"></line><line x1="26.1" y1="40.68" x2="63.74" y2="40.68" style="fill: none; stroke: #4c5f71; stroke-miterlimit: 10; stroke-width: 3px;"></line><line x1="26.1" y1="46.54" x2="63.74" y2="46.54" style="fill: none; stroke: #4c5f71; stroke-miterlimit: 10; stroke-width: 3px;"></line><line x1="26.1" y1="52.4" x2="53.06" y2="52.4" style="fill: none; stroke: #4c5f71; stroke-miterlimit: 10; stroke-width: 3px;"></line><line x1="26.1" y1="58.26" x2="47.72" y2="58.26" style="fill: none; stroke: #4c5f71; stroke-miterlimit: 10; stroke-width: 3px;"></line><line x1="26.1" y1="64.12" x2="45.27" y2="64.12" style="fill: none; stroke: #4c5f71; stroke-miterlimit: 10; stroke-width: 3px;"></line><line x1="26.1" y1="75.85" x2="46.37" y2="75.85" style="fill: none; stroke: #4c5f71; stroke-miterlimit: 10; stroke-width: 3px;"></line></g></svg>