<svg width="124" height="64" viewBox="0 0 124 64" fill="none" xmlns="http://www.w3.org/2000/svg">
<g clip-path="url(#clip0_30199_166330)">
<path d="M22.5978 20.6302C22.5978 23.7753 20.0351 26.2604 16.9288 26.2604C13.8225 26.2604 11.2598 23.7753 11.2598 20.6302C11.2598 17.485 13.8031 15 16.9094 15C20.0157 15 22.5784 17.485 22.5784 20.6302" fill="#7C94AA"/>
<path d="M33.84 20.6299C33.84 23.775 31.2773 26.2601 28.171 26.2601C25.0647 26.2601 22.502 23.775 22.502 20.6299C22.502 17.4848 25.0647 14.9997 28.171 14.9997C31.2773 14.9026 33.84 17.4848 33.84 20.6299Z" fill="#7C94AA"/>
<path d="M22.5978 43.2484C22.5978 46.3935 20.0351 48.8785 16.9288 48.8785C13.8225 48.8785 11.2598 46.3935 11.2598 43.2484C11.2598 40.1032 13.8225 37.6182 16.9288 37.6182C20.0351 37.6182 22.5978 40.1032 22.5978 43.2484Z" fill="#7C94AA"/>
<path d="M33.84 43.2484C33.84 46.3935 31.2773 48.8785 28.171 48.8785C25.0647 48.8785 22.502 46.3935 22.502 43.2484C22.502 40.1032 25.0647 37.6182 28.171 37.6182C31.2773 37.6182 33.84 40.1032 33.84 43.2484Z" fill="#7C94AA"/>
<path d="M11.338 31.8909C11.338 35.0361 8.77533 37.5211 5.66902 37.5211C2.56271 37.5211 0 35.0361 0 31.8909C0 28.7458 2.56271 26.2607 5.66902 26.2607C8.77533 26.2607 11.338 28.7458 11.338 31.8909Z" fill="#7C94AA"/>
<path d="M22.5978 31.8909C22.5978 35.0361 20.0351 37.5211 16.9288 37.5211C13.8225 37.5211 11.2598 35.0361 11.2598 31.8909C11.2598 28.7458 13.8225 26.2607 16.9288 26.2607C20.0351 26.2607 22.5978 28.7458 22.5978 31.8909Z" fill="#7C94AA"/>
<path d="M75.639 27.1926C74.9983 27.1926 74.4547 27.2897 73.8917 27.5615C73.3481 27.7556 72.8822 28.1245 72.4356 28.571V27.4644H70.6883V39.8314H72.4356V35.4826C72.9016 35.9485 73.4452 36.3174 73.9888 36.4921C74.5324 36.6669 75.1731 36.861 75.8137 36.861C76.5515 36.861 77.1922 36.7639 77.7358 36.4921C78.2794 36.2203 78.8424 35.9291 79.2889 35.3855C79.7549 34.9196 80.1043 34.4536 80.2985 33.8129C80.5703 33.2499 80.6673 32.6092 80.6673 31.9686C80.6673 30.5901 80.2014 29.3865 79.2889 28.4546C78.2794 27.6197 77.0951 27.1538 75.639 27.1538M77.9105 34.2983C77.2698 34.939 76.5321 35.2302 75.6196 35.2302C74.7071 35.2302 73.9694 34.9584 73.3287 34.2983C72.688 33.6576 72.4162 32.9199 72.4162 31.988C72.4162 31.1532 72.7851 30.4154 73.4258 29.7747C74.0664 29.1341 74.8042 28.8428 75.6196 28.8428C76.5321 28.8428 77.2698 29.1147 77.9105 29.7747C78.5512 30.4154 78.823 31.1532 78.823 32.0851C78.823 32.9199 78.4541 33.6576 77.9105 34.2983ZM52.9435 28.571C52.4776 28.1051 51.934 27.7362 51.3904 27.4644C50.8468 27.1926 50.2061 27.0956 49.4683 27.0956C48.8277 27.0956 48.187 27.1926 47.6434 27.4644C47.0027 27.7362 46.5368 28.1051 45.9932 28.571C45.5272 29.037 45.1778 29.5029 44.9836 30.1436C44.8089 30.7066 44.6147 31.3473 44.6147 31.988C44.6147 32.6287 44.7118 33.1917 44.9836 33.8324C45.2554 34.473 45.6243 34.939 45.9932 35.4049C46.4591 35.8709 47.0027 36.2397 47.5463 36.5116C48.0899 36.7834 48.7306 36.8804 49.4683 36.8804C50.109 36.8804 50.7497 36.7834 51.3904 36.5116C52.0311 36.2397 52.497 35.8709 53.0406 35.3079C53.5066 34.8419 53.7784 34.376 54.0502 33.7353C54.322 33.1723 54.419 32.5316 54.419 31.8909C54.419 31.2502 54.322 30.6872 54.0502 30.1436C53.7784 29.5029 53.4095 29.037 52.9435 28.571ZM51.6622 34.2983C51.1186 34.939 50.2838 35.2302 49.4683 35.2302C48.5559 35.2302 47.8181 34.9584 47.1774 34.2983C46.5368 33.6576 46.265 32.9199 46.265 31.988C46.265 31.0561 46.5368 30.3183 47.1774 29.6777C47.8181 29.037 48.5559 28.7458 49.3713 28.7458C50.2838 28.7458 51.0215 29.0176 51.5651 29.6777C52.2058 30.3183 52.4776 31.0561 52.4776 31.988C52.5747 32.9199 52.3029 33.6576 51.6622 34.2983ZM38.6933 28.7652C39.334 28.7652 39.8776 28.9593 40.3436 29.2311C40.8095 29.5029 41.159 29.9689 41.5278 30.5319H43.3528C42.9839 29.5224 42.4403 28.6875 41.6055 28.0469C40.7901 27.4838 39.8582 27.212 38.771 27.212C38.0332 27.212 37.3926 27.3091 36.849 27.5809C36.2083 27.8527 35.6647 28.2216 35.1987 28.7846C34.7328 29.2506 34.461 29.7942 34.1892 30.3572C34.0145 30.9202 33.8203 31.5609 33.8203 32.2015C33.8203 32.8422 33.9174 33.4052 34.1892 34.0459C34.461 34.6866 34.7328 35.1525 35.1987 35.6185C35.6647 36.0844 36.2083 36.4533 36.7519 36.7251C37.2955 36.9969 37.9362 37.094 38.6739 37.094C39.7805 37.094 40.7707 36.8222 41.5084 36.2592C42.3238 35.6961 42.8869 34.8807 43.2363 33.7741H41.4114C41.1396 34.3371 40.7707 34.7837 40.3047 35.0749C39.8388 35.3661 39.2952 35.5408 38.6545 35.5408C37.742 35.5408 37.0043 35.269 36.4607 34.6089C35.82 33.9683 35.5482 33.2305 35.5482 32.2986C35.5482 31.3667 35.82 30.629 36.4607 29.9883C37.1014 29.0564 37.8391 28.7846 38.6545 28.7846M65.3882 27.2897C64.6504 27.2897 64.1068 27.3868 63.6409 27.6586C63.1749 27.9304 62.7284 28.2992 62.4566 28.8623C62.1848 28.2992 61.8159 27.9304 61.35 27.6586C60.884 27.3868 60.3404 27.2897 59.6221 27.2897C59.0785 27.2897 58.6125 27.3868 58.2437 27.5615C57.8748 27.7362 57.5059 28.1245 57.1371 28.4934V27.3868H55.5839V36.628H57.2341V31.9103C57.2341 30.8037 57.4089 30.066 57.7777 29.5029C58.1466 28.9399 58.6902 28.7652 59.428 28.7652C60.1657 28.7652 60.6122 29.037 60.9811 29.5029C61.35 29.9689 61.4471 30.8037 61.4471 31.9103V36.531H63.0973V31.7356C63.0973 30.629 63.272 29.8912 63.5632 29.4253C63.9321 28.9593 64.3786 28.6875 65.1164 28.6875C65.7571 28.6875 66.223 28.8817 66.5725 29.3282C66.9219 29.7747 67.1161 30.3378 67.1161 31.1726V36.531H68.8634V30.9008C68.8634 29.7942 68.4945 28.8623 67.8538 28.2216C67.3102 27.5809 66.4754 27.2897 65.3882 27.2897ZM116.506 28.474C116.04 28.008 115.594 27.6392 115.05 27.4644C114.507 27.2897 113.866 27.0956 113.225 27.0956C112.488 27.0956 111.847 27.1926 111.303 27.4644C110.76 27.7362 110.197 28.0274 109.75 28.571C109.284 29.037 109.012 29.5029 108.741 30.1436C108.469 30.7066 108.372 31.3473 108.372 31.988C108.372 33.3664 108.838 34.5701 109.75 35.502C110.663 36.4339 111.847 36.8804 113.322 36.8804C113.963 36.8804 114.507 36.7834 115.07 36.5116C115.613 36.3174 116.079 35.9485 116.526 35.502V36.6086H118.273V27.3674H116.526V28.474H116.506ZM115.691 34.2983C115.05 34.939 114.313 35.2302 113.497 35.2302C112.585 35.2302 111.75 34.9584 111.129 34.2983C110.488 33.6576 110.216 32.9199 110.216 31.988C110.216 31.0561 110.488 30.3183 111.129 29.7747C111.769 29.1341 112.507 28.8428 113.42 28.8428C114.332 28.8428 115.07 29.1147 115.71 29.7747C116.351 30.4154 116.623 31.1532 116.623 32.0851C116.623 32.9199 116.351 33.6576 115.71 34.2983M122.816 27.5615C122.447 27.7556 122.078 28.0274 121.807 28.4934V27.3868H120.156V36.628H121.904V31.5415C121.904 30.7066 122.078 30.066 122.37 29.6971C122.738 29.3282 123.282 29.1341 124.02 29.0564V27.3091C123.554 27.3091 123.204 27.4062 122.836 27.5809M105.363 31.2502C105.188 31.1532 104.994 31.1532 104.722 31.0561C103.809 30.6872 103.343 30.3183 103.343 29.7553C103.343 29.4835 103.44 29.1923 103.615 29.0176C103.79 28.8234 104.081 28.7458 104.353 28.7458C104.722 28.7458 104.994 28.8428 105.168 29.0176C105.343 29.2117 105.44 29.4835 105.537 29.8524H107.187C107.09 29.0176 106.916 28.3769 106.372 27.911C105.906 27.445 105.265 27.2703 104.45 27.2703C103.712 27.2703 102.994 27.5421 102.431 28.1051C101.868 28.6681 101.616 29.3088 101.616 30.0465C101.616 30.5125 101.713 30.8814 101.887 31.1532C102.062 31.522 102.256 31.7938 102.625 32.0851C102.8 32.2792 103.266 32.4539 103.906 32.6481C104.178 32.7452 104.372 32.8422 104.45 32.8422C104.819 33.0364 105.188 33.2111 105.363 33.4052C105.537 33.5994 105.634 33.8712 105.634 34.2401C105.634 34.6089 105.537 34.8807 105.265 35.172C104.994 35.4438 104.722 35.5408 104.256 35.5408C103.79 35.5408 103.518 35.3467 103.246 35.0749C102.975 34.8031 102.78 34.3371 102.78 33.8712H101.13C101.227 34.8807 101.499 35.6185 102.043 36.2786C102.586 36.8416 103.324 37.1134 104.139 37.1134C105.052 37.1134 105.693 36.8416 106.333 36.2786C106.877 35.7156 107.149 35.0749 107.149 34.2401C107.149 33.5023 106.974 32.9393 106.683 32.5704C106.586 31.8327 106.042 31.5609 105.304 31.2697M90.2581 28.8428C89.7921 28.3769 89.3456 28.008 88.8797 27.7362C88.4137 27.4644 87.9672 27.2703 87.4236 27.1732C86.6082 26.9791 85.7733 27.0761 85.055 27.2703C84.2396 27.4644 83.5989 27.911 83.0359 28.474C82.57 28.9399 82.2205 29.4835 81.9293 30.0465C81.6381 30.6096 81.5604 31.2502 81.6575 31.988C81.6575 32.6287 81.8322 33.1917 82.0264 33.7353C82.2982 34.2983 82.667 34.7448 83.133 35.2108C83.5989 35.6767 84.1425 36.0456 84.7832 36.2203C85.4239 36.4921 86.0646 36.5892 86.7052 36.5892C87.3459 36.5892 87.9866 36.4921 88.6273 36.3174C89.0932 36.1233 89.5397 35.8515 89.9086 35.4826V33.0752V33.1723C89.9086 33.1723 89.9086 32.9781 89.8115 33.1723C89.5397 33.6382 89.4427 33.7353 88.9961 34.1042C88.4525 34.6672 87.8119 34.939 87.0741 35.0361C86.3364 35.1331 85.618 34.8419 84.9774 34.473L90.6464 29.0176L90.2775 28.8234L90.2581 28.8428ZM83.7737 33.4635C83.4048 32.8228 83.2301 32.1627 83.3077 31.425C83.4048 30.7843 83.6766 30.1242 84.2202 29.6777C84.7638 29.2117 85.3268 28.8428 85.9675 28.8428C86.6082 28.7458 87.3459 28.9399 88.0643 29.3088L83.7737 33.4635ZM96.1212 27.2897C95.5776 27.2897 95.1117 27.3868 94.6652 27.5615C94.1992 27.7556 93.8498 28.0274 93.4809 28.4934V27.4838H91.8306V36.7251H93.578V32.5704C93.578 31.2697 93.7527 30.3572 94.1216 29.7942C94.4904 29.2311 95.1311 28.9593 95.9465 28.9593C96.7619 28.9593 97.3249 29.2311 97.6744 29.6971C98.0433 30.163 98.218 30.9008 98.218 31.9103V36.8028H99.9653V31.5415C99.9653 30.2407 99.5964 29.2311 98.9558 28.4934C98.3151 27.5615 97.4026 27.2897 96.1212 27.2897Z" fill="#7C94AA"/>
<path d="M75.639 27.1926C74.9983 27.1926 74.4547 27.2897 73.8917 27.5615C73.3481 27.7556 72.8822 28.1245 72.4356 28.571V27.4644H70.6883V39.8314H72.4356V35.4826C72.9016 35.9485 73.4452 36.3174 73.9888 36.4921C74.5324 36.6669 75.1731 36.861 75.8137 36.861C76.5515 36.861 77.1922 36.7639 77.7358 36.4921C78.2794 36.2203 78.8424 35.9291 79.2889 35.3855C79.7549 34.9196 80.1043 34.4536 80.2985 33.8129C80.5703 33.2499 80.6673 32.6092 80.6673 31.9686C80.6673 30.5901 80.2014 29.3865 79.2889 28.4546C78.2794 27.6197 77.0951 27.1538 75.639 27.1538V27.1926ZM77.9105 34.2983C77.2698 34.939 76.5321 35.2302 75.6196 35.2302C74.7071 35.2302 73.9694 34.9584 73.3287 34.2983C72.688 33.6576 72.4162 32.9199 72.4162 31.988C72.4162 31.1532 72.7851 30.4154 73.4258 29.7747C74.0664 29.1341 74.8042 28.8428 75.6196 28.8428C76.5321 28.8428 77.2698 29.1147 77.9105 29.7747C78.5512 30.4154 78.823 31.1532 78.823 32.0851C78.823 32.9199 78.4541 33.6576 77.9105 34.2983ZM52.9435 28.571C52.4776 28.1051 51.934 27.7362 51.3904 27.4644C50.8468 27.1926 50.2061 27.0956 49.4683 27.0956C48.8277 27.0956 48.187 27.1926 47.6434 27.4644C47.0027 27.7362 46.5368 28.1051 45.9932 28.571C45.5272 29.037 45.1778 29.5029 44.9836 30.1436C44.8089 30.7066 44.6147 31.3473 44.6147 31.988C44.6147 32.6287 44.7118 33.1917 44.9836 33.8324C45.2554 34.473 45.6243 34.939 45.9932 35.4049C46.4591 35.8709 47.0027 36.2397 47.5463 36.5116C48.0899 36.7834 48.7306 36.8804 49.4683 36.8804C50.109 36.8804 50.7497 36.7834 51.3904 36.5116C52.0311 36.2397 52.497 35.8709 53.0406 35.3079C53.5066 34.8419 53.7784 34.376 54.0502 33.7353C54.322 33.1723 54.419 32.5316 54.419 31.8909C54.419 31.2502 54.322 30.6872 54.0502 30.1436C53.7784 29.5029 53.4095 29.037 52.9435 28.571ZM51.6622 34.2983C51.1186 34.939 50.2838 35.2302 49.4683 35.2302C48.5559 35.2302 47.8181 34.9584 47.1774 34.2983C46.5368 33.6576 46.265 32.9199 46.265 31.988C46.265 31.0561 46.5368 30.3183 47.1774 29.6777C47.8181 29.037 48.5559 28.7458 49.3713 28.7458C50.2838 28.7458 51.0215 29.0176 51.5651 29.6777C52.2058 30.3183 52.4776 31.0561 52.4776 31.988C52.5747 32.9199 52.3029 33.6576 51.6622 34.2983ZM38.6933 28.7652C39.334 28.7652 39.8776 28.9593 40.3436 29.2311C40.8095 29.5029 41.159 29.9689 41.5278 30.5319H43.3528C42.9839 29.5224 42.4403 28.6875 41.6055 28.0469C40.7901 27.4838 39.8582 27.212 38.771 27.212C38.0332 27.212 37.3926 27.3091 36.849 27.5809C36.2083 27.8527 35.6647 28.2216 35.1987 28.7846C34.7328 29.2506 34.461 29.7942 34.1892 30.3572C34.0145 30.9202 33.8203 31.5609 33.8203 32.2015C33.8203 32.8422 33.9174 33.4052 34.1892 34.0459C34.461 34.6866 34.7328 35.1525 35.1987 35.6185C35.6647 36.0844 36.2083 36.4533 36.7519 36.7251C37.2955 36.9969 37.9362 37.094 38.6739 37.094C39.7805 37.094 40.7707 36.8222 41.5084 36.2592C42.3238 35.6961 42.8869 34.8807 43.2363 33.7741H41.4114C41.1396 34.3371 40.7707 34.7837 40.3047 35.0749C39.8388 35.3661 39.2952 35.5408 38.6545 35.5408C37.742 35.5408 37.0043 35.269 36.4607 34.6089C35.82 33.9683 35.5482 33.2305 35.5482 32.2986C35.5482 31.3667 35.82 30.629 36.4607 29.9883C37.1014 29.0564 37.8391 28.7846 38.6545 28.7846L38.6933 28.7652ZM65.3882 27.2897C64.6504 27.2897 64.1068 27.3868 63.6409 27.6586C63.1749 27.9304 62.7284 28.2992 62.4566 28.8623C62.1848 28.2992 61.8159 27.9304 61.35 27.6586C60.884 27.3868 60.3404 27.2897 59.6221 27.2897C59.0785 27.2897 58.6125 27.3868 58.2437 27.5615C57.8748 27.7362 57.5059 28.1245 57.1371 28.4934V27.3868H55.5839V36.628H57.2341V31.9103C57.2341 30.8037 57.4089 30.066 57.7777 29.5029C58.1466 28.9399 58.6902 28.7652 59.428 28.7652C60.1657 28.7652 60.6122 29.037 60.9811 29.5029C61.35 29.9689 61.4471 30.8037 61.4471 31.9103V36.531H63.0973V31.7356C63.0973 30.629 63.272 29.8912 63.5632 29.4253C63.9321 28.9593 64.3786 28.6875 65.1164 28.6875C65.7571 28.6875 66.223 28.8817 66.5725 29.3282C66.9219 29.7747 67.1161 30.3378 67.1161 31.1726V36.531H68.8634V30.9008C68.8634 29.7942 68.4945 28.8623 67.8538 28.2216C67.3102 27.5809 66.4754 27.2897 65.3882 27.2897ZM116.506 28.474C116.04 28.008 115.594 27.6392 115.05 27.4644C114.507 27.2897 113.866 27.0956 113.225 27.0956C112.488 27.0956 111.847 27.1926 111.303 27.4644C110.76 27.7362 110.197 28.0274 109.75 28.571C109.284 29.037 109.012 29.5029 108.741 30.1436C108.469 30.7066 108.372 31.3473 108.372 31.988C108.372 33.3664 108.838 34.5701 109.75 35.502C110.663 36.4339 111.847 36.8804 113.322 36.8804C113.963 36.8804 114.507 36.7834 115.07 36.5116C115.613 36.3174 116.079 35.9485 116.526 35.502V36.6086H118.273V27.3674H116.526V28.474H116.506ZM115.691 34.2983C115.05 34.939 114.313 35.2302 113.497 35.2302C112.585 35.2302 111.75 34.9584 111.129 34.2983C110.488 33.6576 110.216 32.9199 110.216 31.988C110.216 31.0561 110.488 30.3183 111.129 29.7747C111.769 29.1341 112.507 28.8428 113.42 28.8428C114.332 28.8428 115.07 29.1147 115.71 29.7747C116.351 30.4154 116.623 31.1532 116.623 32.0851C116.623 32.9199 116.351 33.6576 115.71 34.2983H115.691ZM122.816 27.5615C122.447 27.7556 122.078 28.0274 121.807 28.4934V27.3868H120.156V36.628H121.904V31.5415C121.904 30.7066 122.078 30.066 122.37 29.6971C122.738 29.3282 123.282 29.1341 124.02 29.0564V27.3091C123.554 27.3091 123.204 27.4062 122.836 27.5809L122.816 27.5615ZM105.363 31.2502C105.188 31.1532 104.994 31.1532 104.722 31.0561C103.809 30.6872 103.343 30.3183 103.343 29.7553C103.343 29.4835 103.44 29.1923 103.615 29.0176C103.79 28.8234 104.081 28.7458 104.353 28.7458C104.722 28.7458 104.994 28.8428 105.168 29.0176C105.343 29.2117 105.44 29.4835 105.537 29.8524H107.187C107.09 29.0176 106.916 28.3769 106.372 27.911C105.906 27.445 105.265 27.2703 104.45 27.2703C103.712 27.2703 102.994 27.5421 102.431 28.1051C101.868 28.6681 101.616 29.3088 101.616 30.0465C101.616 30.5125 101.713 30.8814 101.887 31.1532C102.062 31.522 102.256 31.7938 102.625 32.0851C102.8 32.2792 103.266 32.4539 103.906 32.6481C104.178 32.7452 104.372 32.8422 104.45 32.8422C104.819 33.0364 105.188 33.2111 105.363 33.4052C105.537 33.5994 105.634 33.8712 105.634 34.2401C105.634 34.6089 105.537 34.8807 105.265 35.172C104.994 35.4438 104.722 35.5408 104.256 35.5408C103.79 35.5408 103.518 35.3467 103.246 35.0749C102.975 34.8031 102.78 34.3371 102.78 33.8712H101.13C101.227 34.8807 101.499 35.6185 102.043 36.2786C102.586 36.8416 103.324 37.1134 104.139 37.1134C105.052 37.1134 105.693 36.8416 106.333 36.2786C106.877 35.7156 107.149 35.0749 107.149 34.2401C107.149 33.5023 106.974 32.9393 106.683 32.5704C106.586 31.8327 106.042 31.5609 105.304 31.2697L105.363 31.2502ZM90.2581 28.8428C89.7921 28.3769 89.3456 28.008 88.8797 27.7362C88.4137 27.4644 87.9672 27.2703 87.4236 27.1732C86.6082 26.9791 85.7733 27.0761 85.055 27.2703C84.2396 27.4644 83.5989 27.911 83.0359 28.474C82.57 28.9399 82.2205 29.4835 81.9293 30.0465C81.6381 30.6096 81.5604 31.2502 81.6575 31.988C81.6575 32.6287 81.8322 33.1917 82.0264 33.7353C82.2982 34.2983 82.667 34.7448 83.133 35.2108C83.5989 35.6767 84.1425 36.0456 84.7832 36.2203C85.4239 36.4921 86.0646 36.5892 86.7052 36.5892C87.3459 36.5892 87.9866 36.4921 88.6273 36.3174C89.0932 36.1233 89.5397 35.8515 89.9086 35.4826V33.0752V33.1723C89.9086 33.1723 89.9086 32.9781 89.8115 33.1723C89.5397 33.6382 89.4427 33.7353 88.9961 34.1042C88.4525 34.6672 87.8119 34.939 87.0741 35.0361C86.3364 35.1331 85.618 34.8419 84.9774 34.473L90.6464 29.0176L90.2775 28.8234L90.2581 28.8428ZM83.7737 33.4635C83.4048 32.8228 83.2301 32.1627 83.3077 31.425C83.4048 30.7843 83.6766 30.1242 84.2202 29.6777C84.7638 29.2117 85.3268 28.8428 85.9675 28.8428C86.6082 28.7458 87.3459 28.9399 88.0643 29.3088L83.7737 33.4635ZM96.1212 27.2897C95.5776 27.2897 95.1117 27.3868 94.6652 27.5615C94.1992 27.7556 93.8498 28.0274 93.4809 28.4934V27.4838H91.8306V36.7251H93.578V32.5704C93.578 31.2697 93.7527 30.3572 94.1216 29.7942C94.4904 29.2311 95.1311 28.9593 95.9465 28.9593C96.7619 28.9593 97.3249 29.2311 97.6744 29.6971C98.0433 30.163 98.218 30.9008 98.218 31.9103V36.8028H99.9653V31.5415C99.9653 30.2407 99.5964 29.2311 98.9558 28.4934C98.3151 27.5615 97.4026 27.2897 96.1212 27.2897Z" fill="#7C94AA"/>
</g>
<defs>
<clipPath id="clip0_30199_166330">
<rect width="124" height="33.8782" fill="white" transform="translate(0 15)"/>
</clipPath>
</defs>
</svg>
